<svg width="1440" height="1024" viewBox="0 0 1440 1024" fill="none" xmlns="http://www.w3.org/2000/svg">
<rect width="1440" height="1024" fill="url(#paint0_linear_1_7)"/>
<rect x="191" y="212" width="1057" height="600" fill="#959595"/>
<rect x="191" y="212" width="1057" height="600" fill="black" fill-opacity="0.2"/>
<path d="M651.757 513.392C647.465 513.392 643.782 511.855 640.708 508.781C637.634 505.707 636.097 502.024 636.097 497.732C636.097 493.439 637.634 489.756 640.708 486.682C643.782 483.608 647.465 482.071 651.757 482.071C656.049 482.071 659.732 483.608 662.806 486.682C665.881 489.756 667.418 493.439 667.418 497.732C667.418 500.574 666.693 503.184 665.243 505.562C663.85 507.94 661.965 509.854 659.587 511.304C657.267 512.696 654.657 513.392 651.757 513.392ZM719.228 513.392C714.936 513.392 711.253 511.855 708.178 508.781C705.104 505.707 703.567 502.024 703.567 497.732C703.567 493.439 705.104 489.756 708.178 486.682C711.253 483.608 714.936 482.071 719.228 482.071C723.52 482.071 727.203 483.608 730.277 486.682C733.351 489.756 734.888 493.439 734.888 497.732C734.888 500.574 734.163 503.184 732.713 505.562C731.321 507.94 729.436 509.854 727.058 511.304C724.738 512.696 722.128 513.392 719.228 513.392ZM786.699 513.392C782.406 513.392 778.723 511.855 775.649 508.781C772.575 505.707 771.038 502.024 771.038 497.732C771.038 493.439 772.575 489.756 775.649 486.682C778.723 483.608 782.406 482.071 786.699 482.071C790.991 482.071 794.674 483.608 797.748 486.682C800.822 489.756 802.359 493.439 802.359 497.732C802.359 500.574 801.634 503.184 800.184 505.562C798.792 507.94 796.907 509.854 794.529 511.304C792.209 512.696 789.599 513.392 786.699 513.392Z" fill="#ECECEC"/>
<defs>
<linearGradient id="paint0_linear_1_7" x1="720" y1="0" x2="720" y2="1024" gradientUnits="userSpaceOnUse">
<stop offset="0.84375" stop-color="#0D0D0D" stop-opacity="0.77"/>
<stop offset="1" stop-color="#0D0D0D" stop-opacity="0"/>
<stop offset="1" stop-color="#0D0D0D"/>
</linearGradient>
</defs>
</svg>
