<svg width="280" height="52" viewBox="0 0 280 52" fill="none" xmlns="http://www.w3.org/2000/svg">
<path d="M66.8397 10.6796C66.8397 9.39963 67.6264 8.75963 69.1997 8.75963C70.7997 8.75963 71.5997 9.39963 71.5997 10.6796V39.0396C71.5997 40.3196 70.7997 40.9596 69.1997 40.9596C67.6264 40.9596 66.8397 40.3196 66.8397 39.0396V10.6796ZM54.6797 39.0396C54.6797 40.3196 53.8797 40.9596 52.2797 40.9596C50.7064 40.9596 49.9197 40.3196 49.9197 39.0396V10.6796C49.9197 9.39963 50.7064 8.75963 52.2797 8.75963C53.8797 8.75963 54.6797 9.39963 54.6797 10.6796V39.0396ZM64.0397 24.1996C64.0397 25.133 63.7197 25.9196 63.0797 26.5596C62.4397 27.1996 61.6531 27.5196 60.7197 27.5196C59.8131 27.5196 59.0397 27.1996 58.3997 26.5596C57.7597 25.9196 57.4397 25.133 57.4397 24.1996C57.4397 23.2663 57.7597 22.4796 58.3997 21.8396C59.0397 21.1996 59.8131 20.8796 60.7197 20.8796C61.6531 20.8796 62.4397 21.1996 63.0797 21.8396C63.7197 22.4796 64.0397 23.2663 64.0397 24.1996ZM81.4988 34.3196C81.4988 34.9596 81.6988 35.5596 82.0988 36.1196C82.5255 36.6796 83.2321 36.9596 84.2188 36.9596H89.2188C90.2055 36.9596 90.8988 36.7196 91.2988 36.2396C91.7255 35.733 91.9388 35.1596 91.9388 34.5196V34.0796C91.9388 32.8263 92.6721 32.1996 94.1388 32.1996C95.6055 32.1996 96.3388 32.8263 96.3388 34.0796V34.5596C96.3388 35.6796 96.1521 36.5996 95.7788 37.3196C95.4321 38.0396 94.8988 38.6663 94.1788 39.1996C92.7655 40.213 91.3521 40.7196 89.9388 40.7196H83.2188C81.8055 40.7196 80.4321 40.213 79.0988 39.1996C78.4588 38.6663 77.9655 37.9996 77.6188 37.1996C77.2721 36.373 77.0988 35.4263 77.0988 34.3596V22.9596C77.0988 20.7996 77.7655 19.1996 79.0988 18.1596C79.7655 17.6796 80.4455 17.3063 81.1388 17.0396C81.8588 16.7463 82.5521 16.5996 83.2188 16.5996H89.9388C90.5788 16.5996 91.2855 16.733 92.0588 16.9996C92.8321 17.2396 93.5521 17.573 94.2188 17.9996C94.8588 18.453 95.3655 19.0796 95.7388 19.8796C96.1388 20.6796 96.3388 21.6263 96.3388 22.7196V28.1196C96.3388 28.733 96.1521 29.2796 95.7788 29.7596C95.4321 30.2396 94.7788 30.4796 93.8188 30.4796H85.1788C84.2188 30.4796 83.7121 29.853 83.6588 28.5996C83.6588 27.3463 84.1655 26.7196 85.1788 26.7196H91.9788L91.9388 22.9996C91.9388 22.333 91.7255 21.733 91.2988 21.1996C90.8988 20.6396 90.2055 20.3596 89.2188 20.3596H84.2188C83.2321 20.3596 82.5255 20.6396 82.0988 21.1996C81.6988 21.733 81.4988 22.333 81.4988 22.9996V34.3196ZM105.995 39.1596C105.995 40.413 105.261 41.0396 103.795 41.0396C102.301 41.0396 101.555 40.413 101.555 39.1596V10.4796C101.555 9.2263 102.301 8.59963 103.795 8.59963C105.261 8.59963 105.995 9.2263 105.995 10.4796V39.1596ZM116.073 39.1596C116.073 40.413 115.34 41.0396 113.873 41.0396C112.38 41.0396 111.633 40.413 111.633 39.1596V10.4796C111.633 9.2263 112.38 8.59963 113.873 8.59963C115.34 8.59963 116.073 9.2263 116.073 10.4796V39.1596ZM134.391 16.6396C135.084 16.6396 135.791 16.7863 136.511 17.0796C137.258 17.373 137.978 17.7463 138.671 18.1996H138.631C139.324 18.7063 139.858 19.373 140.231 20.1996C140.604 20.9996 140.791 21.933 140.791 22.9996V34.3596C140.791 36.5463 140.071 38.1596 138.631 39.1996C137.218 40.213 135.804 40.7196 134.391 40.7196H127.991C127.298 40.7196 126.591 40.5996 125.871 40.3596C125.151 40.1196 124.444 39.733 123.751 39.1996C122.311 38.1863 121.591 36.573 121.591 34.3596V22.9996C121.591 21.933 121.778 20.9996 122.151 20.1996C122.524 19.373 123.058 18.7063 123.751 18.1996H123.711C124.378 17.7463 125.084 17.373 125.831 17.0796C126.578 16.7863 127.298 16.6396 127.991 16.6396H134.391ZM133.671 36.9596C134.658 36.9596 135.351 36.6796 135.751 36.1196C136.178 35.5596 136.391 34.9596 136.391 34.3196V23.0396C136.391 22.373 136.178 21.773 135.751 21.2396C135.351 20.6796 134.658 20.3996 133.671 20.3996H128.711C127.724 20.3996 127.018 20.6796 126.591 21.2396C126.191 21.773 125.991 22.373 125.991 23.0396V34.3196C125.991 34.9596 126.191 35.5596 126.591 36.1196C127.018 36.6796 127.724 36.9596 128.711 36.9596H133.671ZM186.681 10.2796L186.641 10.3196C186.801 9.73297 187.108 9.3063 187.561 9.03963C188.041 8.77297 188.668 8.7063 189.441 8.83963C190.214 8.97297 190.761 9.21297 191.081 9.55963C191.428 9.9063 191.508 10.3863 191.321 10.9996L184.121 39.6796V39.6396C183.988 40.093 183.681 40.4396 183.201 40.6796C182.748 40.9196 182.268 41.0396 181.761 41.0396C181.174 41.0396 180.614 40.9463 180.081 40.7596C179.574 40.5996 179.254 40.253 179.121 39.7196L179.161 39.7596L174.241 20.2396H173.161L168.281 39.7196C168.148 40.173 167.814 40.5063 167.281 40.7196C166.748 40.933 166.201 41.0396 165.641 41.0396C164.948 41.0396 164.388 40.933 163.961 40.7196C163.561 40.533 163.294 40.1863 163.161 39.6796L163.201 39.7196L156.001 10.9996C155.868 10.4663 155.988 10.013 156.361 9.63963C156.734 9.23963 157.268 8.97297 157.961 8.83963C159.454 8.59963 160.361 9.09297 160.681 10.3196L160.641 10.2796L162.441 17.5196C162.681 18.4796 162.921 19.4663 163.161 20.4796C163.401 21.4663 163.668 22.533 163.961 23.6796C164.254 24.7996 164.574 26.0263 164.921 27.3596C165.268 28.693 165.654 30.1863 166.081 31.8396L171.201 10.2396C171.334 9.65297 171.641 9.2663 172.121 9.07963C172.601 8.89297 173.134 8.79963 173.721 8.79963C174.254 8.79963 174.774 8.9063 175.281 9.11963C175.788 9.3063 176.108 9.7063 176.241 10.3196L181.521 31.7196L186.681 10.2796ZM207.399 16.6396C208.092 16.6396 208.799 16.7863 209.519 17.0796C210.265 17.373 210.985 17.7463 211.679 18.1996H211.639C212.332 18.7063 212.865 19.373 213.239 20.1996C213.612 20.9996 213.799 21.933 213.799 22.9996V34.3596C213.799 36.5463 213.079 38.1596 211.639 39.1996C210.225 40.213 208.812 40.7196 207.399 40.7196H200.999C200.305 40.7196 199.599 40.5996 198.879 40.3596C198.159 40.1196 197.452 39.733 196.759 39.1996C195.319 38.1863 194.599 36.573 194.599 34.3596V22.9996C194.599 21.933 194.785 20.9996 195.159 20.1996C195.532 19.373 196.065 18.7063 196.759 18.1996H196.719C197.385 17.7463 198.092 17.373 198.839 17.0796C199.585 16.7863 200.305 16.6396 200.999 16.6396H207.399ZM206.679 36.9596C207.665 36.9596 208.359 36.6796 208.759 36.1196C209.185 35.5596 209.399 34.9596 209.399 34.3196V23.0396C209.399 22.373 209.185 21.773 208.759 21.2396C208.359 20.6796 207.665 20.3996 206.679 20.3996H201.719C200.732 20.3996 200.025 20.6796 199.599 21.2396C199.199 21.773 198.999 22.373 198.999 23.0396V34.3196C198.999 34.9596 199.199 35.5596 199.599 36.1196C200.025 36.6796 200.732 36.9596 201.719 36.9596H206.679ZM223.177 39.0396C223.177 40.3196 222.443 40.9596 220.977 40.9596C219.457 40.9596 218.697 40.3196 218.697 39.0396V22.4796C218.697 20.293 219.35 18.773 220.657 17.9196C221.963 17.0663 223.47 16.6396 225.177 16.6396H229.737C230.723 16.6396 231.217 17.2663 231.217 18.5196C231.27 19.773 230.777 20.3996 229.737 20.3996H225.497C224.537 20.3996 223.91 20.5863 223.617 20.9596C223.323 21.333 223.177 21.853 223.177 22.5196V39.0396ZM239.159 39.1596C239.159 40.413 238.425 41.0396 236.959 41.0396C235.465 41.0396 234.719 40.413 234.719 39.1596V10.4796C234.719 9.2263 235.465 8.59963 236.959 8.59963C238.425 8.59963 239.159 9.2263 239.159 10.4796V39.1596ZM259.517 20.3996H251.797C250.704 20.3996 249.984 20.7196 249.637 21.3596C249.264 21.9196 249.077 22.573 249.077 23.3196V34.8396C249.077 35.533 249.29 36.0663 249.717 36.4396C250.144 36.7863 250.85 36.9596 251.837 36.9596H255.957C256.917 36.9596 257.397 37.5863 257.397 38.8396C257.397 39.373 257.277 39.8263 257.037 40.1996C256.824 40.5463 256.464 40.7196 255.957 40.7196H251.117C249.437 40.7196 247.944 40.293 246.637 39.4396C245.33 38.6396 244.677 37.1196 244.677 34.8796V22.9596C244.677 21.8663 244.85 20.9196 245.197 20.1196C245.544 19.3196 246.09 18.6663 246.837 18.1596C248.25 17.1463 249.664 16.6396 251.077 16.6396H259.517V10.6396C259.517 9.35963 260.25 8.71963 261.717 8.71963C263.184 8.71963 263.917 9.35963 263.917 10.6396V39.0396C263.917 40.3196 263.184 40.9596 261.717 40.9596C261.157 40.9596 260.65 40.8663 260.197 40.6796C259.744 40.4663 259.517 40.013 259.517 39.3196V20.3996ZM275.328 30.2796C275.328 31.533 274.528 32.1596 272.928 32.1596C271.381 32.1596 270.608 31.533 270.608 30.2796V10.6796C270.608 9.39963 271.381 8.75963 272.928 8.75963C274.528 8.75963 275.328 9.39963 275.328 10.6796V30.2796ZM276.208 37.4796C276.208 38.413 275.888 39.1996 275.248 39.8396C274.635 40.453 273.875 40.7596 272.968 40.7596C272.061 40.7596 271.288 40.453 270.648 39.8396C270.035 39.1996 269.728 38.413 269.728 37.4796C269.728 36.573 270.035 35.813 270.648 35.1996C271.288 34.5863 272.061 34.2796 272.968 34.2796C273.875 34.2796 274.635 34.5863 275.248 35.1996C275.888 35.813 276.208 36.573 276.208 37.4796Z" fill="white"/>
<path d="M29.7958 40.933C38.1979 38.6816 43.1841 30.0453 40.9328 21.6432C38.6814 13.2411 30.0451 8.25497 21.643 10.5063C13.2409 12.7576 8.25475 21.3939 10.5061 29.796C12.7574 38.1981 21.3937 43.1843 29.7958 40.933Z" stroke="white" stroke-width="2" stroke-miterlimit="10"/>
<path d="M10.019 24.4914L38.7025 16.8057" stroke="white" stroke-width="2" stroke-linecap="round" stroke-linejoin="round"/>
<path d="M12.7368 34.6336L41.4203 26.9479" stroke="white" stroke-width="2" stroke-linecap="round" stroke-linejoin="round"/>
<path d="M29.6854 40.521C33.1863 39.5829 34.2487 32.1957 32.0583 24.0212C29.868 15.8466 25.2543 9.9803 21.7534 10.9184C18.2526 11.8564 17.1902 19.2436 19.3805 27.4182C21.5709 35.5927 26.1846 41.459 29.6854 40.521Z" stroke="white" stroke-width="2" stroke-miterlimit="10"/>
</svg>
