<svg width="483" height="57" viewBox="0 0 483 57" fill="none" xmlns="http://www.w3.org/2000/svg">
<path d="M84.32 34.16C84.32 34.6933 84.1333 35.1467 83.76 35.52C83.3867 35.8933 82.9333 36.08 82.4 36.08C81.8667 36.08 81.4133 35.8933 81.04 35.52C80.6667 35.1467 80.48 34.6933 80.48 34.16V29.28H56.84V34.16C56.84 34.6933 56.6533 35.1467 56.28 35.52C55.9067 35.8933 55.4533 36.08 54.92 36.08C54.3867 36.08 53.9333 35.8933 53.56 35.52C53.1867 35.1467 53 34.6933 53 34.16V20.56C53 20.0267 53.1867 19.5733 53.56 19.2C53.9333 18.8267 54.3867 18.64 54.92 18.64C55.4533 18.64 55.9067 18.8267 56.28 19.2C56.6533 19.5733 56.84 20.0267 56.84 20.56V25.44H80.48V20.56C80.48 20.0267 80.6667 19.5733 81.04 19.2C81.4133 18.8267 81.8667 18.64 82.4 18.64C82.9333 18.64 83.3867 18.8267 83.76 19.2C84.1333 19.5733 84.32 20.0267 84.32 20.56V34.16ZM88.3125 20.56C88.3125 20.0267 88.4992 19.5733 88.8725 19.2C89.2458 18.8267 89.6992 18.64 90.2325 18.64H118.593C119.126 18.64 119.579 18.8267 119.953 19.2C120.326 19.5733 120.513 20.0267 120.513 20.56C120.513 21.0933 120.326 21.5467 119.953 21.92C119.579 22.2933 119.126 22.48 118.593 22.48H90.2325C89.6992 22.48 89.2458 22.2933 88.8725 21.92C88.4992 21.5467 88.3125 21.0933 88.3125 20.56ZM93.1925 36.08C92.6058 36.08 92.0192 35.96 91.4325 35.72C90.8458 35.4533 90.3258 35.0933 89.8725 34.64C89.4192 34.1867 89.0458 33.64 88.7525 33C88.4592 32.36 88.3125 31.64 88.3125 30.84V27.24C88.3125 26.52 88.5125 26.04 88.9125 25.8C89.3392 25.56 89.9925 25.44 90.8725 25.44H117.713C118.246 25.44 118.699 25.6267 119.073 26C119.446 26.3733 119.633 26.8267 119.633 27.36C119.633 27.8933 119.446 28.3467 119.073 28.72C118.699 29.0933 118.246 29.28 117.713 29.28H92.1525V31.24C92.1525 31.5067 92.2592 31.7467 92.4725 31.96C92.7125 32.1467 93.0192 32.24 93.3925 32.24H118.593C119.126 32.24 119.579 32.4267 119.953 32.8C120.326 33.1733 120.513 33.6267 120.513 34.16C120.513 34.6933 120.326 35.1467 119.953 35.52C119.579 35.8933 119.126 36.08 118.593 36.08H93.1925ZM130.003 36.08C129.257 36.08 128.55 35.9467 127.883 35.68C127.217 35.3867 126.63 35 126.123 34.52C125.643 34.04 125.257 33.48 124.963 32.84C124.67 32.2 124.523 31.5067 124.523 30.76V20.56C124.523 20.0267 124.71 19.5733 125.083 19.2C125.457 18.8267 125.91 18.64 126.443 18.64C126.95 18.64 127.39 18.8267 127.763 19.2C128.163 19.5733 128.363 20.0267 128.363 20.56V30.76C128.363 31.16 128.51 31.5067 128.803 31.8C129.123 32.0933 129.483 32.24 129.883 32.24H153.883C154.417 32.24 154.87 32.4267 155.243 32.8C155.617 33.1733 155.803 33.6267 155.803 34.16C155.803 34.6933 155.617 35.1467 155.243 35.52C154.87 35.8933 154.417 36.08 153.883 36.08H130.003ZM165.277 36.08C164.53 36.08 163.824 35.9467 163.157 35.68C162.49 35.3867 161.904 35 161.397 34.52C160.917 34.04 160.53 33.48 160.237 32.84C159.944 32.2 159.797 31.5067 159.797 30.76V20.56C159.797 20.0267 159.984 19.5733 160.357 19.2C160.73 18.8267 161.184 18.64 161.717 18.64C162.224 18.64 162.664 18.8267 163.037 19.2C163.437 19.5733 163.637 20.0267 163.637 20.56V30.76C163.637 31.16 163.784 31.5067 164.077 31.8C164.397 32.0933 164.757 32.24 165.157 32.24H189.157C189.69 32.24 190.144 32.4267 190.517 32.8C190.89 33.1733 191.077 33.6267 191.077 34.16C191.077 34.6933 190.89 35.1467 190.517 35.52C190.144 35.8933 189.69 36.08 189.157 36.08H165.277ZM218.415 32.24C219.321 32.24 220.068 32.08 220.655 31.76C221.241 31.4133 221.695 31 222.015 30.52C222.361 30.04 222.588 29.52 222.695 28.96C222.828 28.3733 222.895 27.84 222.895 27.36C222.895 26.88 222.828 26.36 222.695 25.8C222.588 25.2133 222.361 24.68 222.015 24.2C221.695 23.72 221.241 23.32 220.655 23C220.068 22.6533 219.321 22.48 218.415 22.48H202.255C201.321 22.48 200.561 22.6533 199.975 23C199.415 23.32 198.961 23.72 198.615 24.2C198.295 24.68 198.068 25.2133 197.935 25.8C197.828 26.36 197.775 26.88 197.775 27.36C197.775 27.84 197.828 28.3733 197.935 28.96C198.068 29.52 198.295 30.04 198.615 30.52C198.961 31 199.415 31.4133 199.975 31.76C200.561 32.08 201.321 32.24 202.255 32.24H218.415ZM226.615 27.36C226.615 28.3733 226.441 29.4 226.095 30.44C225.775 31.4533 225.295 32.3867 224.655 33.24C224.015 34.0667 223.241 34.7467 222.335 35.28C221.428 35.8133 220.401 36.08 219.255 36.08H201.015C199.921 36.0267 198.948 35.7333 198.095 35.2C197.241 34.64 196.508 33.9467 195.895 33.12C195.308 32.2933 194.855 31.3733 194.535 30.36C194.215 29.3467 194.055 28.3467 194.055 27.36C194.055 26.3467 194.215 25.3333 194.535 24.32C194.881 23.28 195.375 22.3467 196.015 21.52C196.655 20.6667 197.428 19.9733 198.335 19.44C199.241 18.9067 200.268 18.64 201.415 18.64H219.655C220.748 18.6933 221.721 19 222.575 19.56C223.428 20.0933 224.148 20.7733 224.735 21.6C225.348 22.4267 225.815 23.3467 226.135 24.36C226.455 25.3733 226.615 26.3733 226.615 27.36ZM248.625 20.56C248.625 20.0267 248.812 19.5733 249.185 19.2C249.558 18.8267 250.012 18.64 250.545 18.64C251.078 18.64 251.532 18.8267 251.905 19.2C252.278 19.5733 252.465 20.0267 252.465 20.56V27.36C252.465 27.84 252.518 28.3733 252.625 28.96C252.758 29.52 252.985 30.04 253.305 30.52C253.652 31 254.105 31.4133 254.665 31.76C255.252 32.08 256.012 32.24 256.945 32.24H266.225C265.798 31.4933 265.478 30.7067 265.265 29.88C265.052 29.0267 264.945 28.1867 264.945 27.36V20.56C264.945 20.0267 265.132 19.5733 265.505 19.2C265.878 18.8267 266.332 18.64 266.865 18.64C267.398 18.64 267.852 18.8267 268.225 19.2C268.598 19.5733 268.785 20.0267 268.785 20.56V27.36C268.785 27.84 268.838 28.36 268.945 28.92C269.078 29.48 269.292 30.0133 269.585 30.52C269.905 31 270.332 31.4133 270.865 31.76C271.425 32.08 272.132 32.24 272.985 32.24H276.785C277.692 32.24 278.438 32.08 279.025 31.76C279.612 31.4133 280.065 31 280.385 30.52C280.732 30.04 280.958 29.52 281.065 28.96C281.198 28.3733 281.265 27.84 281.265 27.36V20.56C281.265 20.0267 281.452 19.5733 281.825 19.2C282.198 18.8267 282.652 18.64 283.185 18.64C283.718 18.64 284.172 18.8267 284.545 19.2C284.918 19.5733 285.105 20.0267 285.105 20.56V27.36C285.105 28.3733 284.932 29.4 284.585 30.44C284.265 31.4533 283.785 32.3867 283.145 33.24C282.505 34.0667 281.732 34.7467 280.825 35.28C279.918 35.8133 278.892 36.08 277.745 36.08H255.585C254.492 36.08 253.518 35.8133 252.665 35.28C251.812 34.7467 251.078 34.0667 250.465 33.24C249.878 32.3867 249.425 31.44 249.105 30.4C248.785 29.36 248.625 28.3467 248.625 27.36V20.56ZM313.454 32.24C314.36 32.24 315.107 32.08 315.694 31.76C316.28 31.4133 316.734 31 317.054 30.52C317.4 30.04 317.627 29.52 317.734 28.96C317.867 28.3733 317.934 27.84 317.934 27.36C317.934 26.88 317.867 26.36 317.734 25.8C317.627 25.2133 317.4 24.68 317.054 24.2C316.734 23.72 316.28 23.32 315.694 23C315.107 22.6533 314.36 22.48 313.454 22.48H297.294C296.36 22.48 295.6 22.6533 295.014 23C294.454 23.32 294 23.72 293.654 24.2C293.334 24.68 293.107 25.2133 292.974 25.8C292.867 26.36 292.814 26.88 292.814 27.36C292.814 27.84 292.867 28.3733 292.974 28.96C293.107 29.52 293.334 30.04 293.654 30.52C294 31 294.454 31.4133 295.014 31.76C295.6 32.08 296.36 32.24 297.294 32.24H313.454ZM321.654 27.36C321.654 28.3733 321.48 29.4 321.134 30.44C320.814 31.4533 320.334 32.3867 319.694 33.24C319.054 34.0667 318.28 34.7467 317.374 35.28C316.467 35.8133 315.44 36.08 314.294 36.08H296.054C294.96 36.0267 293.987 35.7333 293.134 35.2C292.28 34.64 291.547 33.9467 290.934 33.12C290.347 32.2933 289.894 31.3733 289.574 30.36C289.254 29.3467 289.094 28.3467 289.094 27.36C289.094 26.3467 289.254 25.3333 289.574 24.32C289.92 23.28 290.414 22.3467 291.054 21.52C291.694 20.6667 292.467 19.9733 293.374 19.44C294.28 18.9067 295.307 18.64 296.454 18.64H314.694C315.787 18.6933 316.76 19 317.614 19.56C318.467 20.0933 319.187 20.7733 319.774 21.6C320.387 22.4267 320.854 23.3467 321.174 24.36C321.494 25.3733 321.654 26.3733 321.654 27.36ZM351.376 29.28C352.096 29.7333 352.83 30.2267 353.576 30.76C354.323 31.2667 355.083 31.8267 355.856 32.44C356.15 32.6533 356.403 32.9067 356.616 33.2C356.83 33.4667 356.936 33.7867 356.936 34.16C356.936 34.6933 356.75 35.1467 356.376 35.52C356.003 35.8933 355.55 36.08 355.016 36.08C354.563 36.08 354.11 35.8933 353.656 35.52C352.563 34.72 351.443 33.9467 350.296 33.2C349.15 32.4533 347.95 31.7867 346.696 31.2C345.47 30.6133 344.19 30.1467 342.856 29.8C341.523 29.4533 340.136 29.28 338.696 29.28H330.736C330.39 29.3333 330.096 29.4933 329.856 29.76C329.616 30.0267 329.496 30.36 329.496 30.76V34.16C329.496 34.6933 329.296 35.1467 328.896 35.52C328.523 35.8933 328.083 36.08 327.576 36.08C327.043 36.08 326.59 35.8933 326.216 35.52C325.843 35.1467 325.656 34.6933 325.656 34.16V30.32C325.656 29.6533 325.776 29.0267 326.016 28.44C326.283 27.8267 326.63 27.3067 327.056 26.88C327.483 26.4267 327.99 26.08 328.576 25.84C329.163 25.5733 329.803 25.44 330.496 25.44H351.696C352.096 25.44 352.443 25.3067 352.736 25.04C353.056 24.7467 353.216 24.3867 353.216 23.96C353.216 23.56 353.056 23.2133 352.736 22.92C352.443 22.6267 352.096 22.48 351.696 22.48H327.576C327.043 22.48 326.59 22.2933 326.216 21.92C325.843 21.5467 325.656 21.0933 325.656 20.56C325.656 20.0267 325.843 19.5733 326.216 19.2C326.59 18.8267 327.043 18.64 327.576 18.64H351.536C352.283 18.64 352.976 18.7867 353.616 19.08C354.283 19.3467 354.856 19.72 355.336 20.2C355.843 20.68 356.23 21.24 356.496 21.88C356.79 22.52 356.936 23.2133 356.936 23.96C356.936 24.7067 356.79 25.4 356.496 26.04C356.23 26.68 355.843 27.24 355.336 27.72C354.856 28.2 354.283 28.5867 353.616 28.88C352.976 29.1467 352.283 29.28 351.536 29.28H351.376ZM366.41 36.08C365.663 36.08 364.956 35.9467 364.29 35.68C363.623 35.3867 363.036 35 362.53 34.52C362.05 34.04 361.663 33.48 361.37 32.84C361.076 32.2 360.93 31.5067 360.93 30.76V20.56C360.93 20.0267 361.116 19.5733 361.49 19.2C361.863 18.8267 362.316 18.64 362.85 18.64C363.356 18.64 363.796 18.8267 364.17 19.2C364.57 19.5733 364.77 20.0267 364.77 20.56V30.76C364.77 31.16 364.916 31.5067 365.21 31.8C365.53 32.0933 365.89 32.24 366.29 32.24H390.29C390.823 32.24 391.276 32.4267 391.65 32.8C392.023 33.1733 392.21 33.6267 392.21 34.16C392.21 34.6933 392.023 35.1467 391.65 35.52C391.276 35.8933 390.823 36.08 390.29 36.08H366.41ZM420.603 32.24C421.51 32.24 422.256 32.08 422.843 31.76C423.43 31.4133 423.883 31 424.203 30.52C424.55 30.04 424.776 29.52 424.883 28.96C425.016 28.3733 425.083 27.84 425.083 27.36C425.083 26.88 425.016 26.36 424.883 25.8C424.776 25.2133 424.55 24.68 424.203 24.2C423.883 23.72 423.43 23.32 422.843 23C422.256 22.6533 421.51 22.48 420.603 22.48H398.123C397.59 22.48 397.136 22.2933 396.763 21.92C396.39 21.5467 396.203 21.0933 396.203 20.56C396.203 20.0267 396.39 19.5733 396.763 19.2C397.136 18.8267 397.59 18.64 398.123 18.64H421.443C422.59 18.64 423.616 18.9067 424.523 19.44C425.43 19.9733 426.203 20.6667 426.843 21.52C427.483 22.3467 427.963 23.28 428.283 24.32C428.63 25.3333 428.803 26.3467 428.803 27.36C428.803 28.3467 428.643 29.3467 428.323 30.36C428.003 31.3733 427.536 32.2933 426.923 33.12C426.336 33.9467 425.616 34.64 424.763 35.2C423.91 35.7333 422.936 36.0267 421.843 36.08H398.123C397.59 36.08 397.136 35.8933 396.763 35.52C396.39 35.1467 396.203 34.6933 396.203 34.16V27.36C396.203 26.8267 396.39 26.3733 396.763 26C397.136 25.6267 397.59 25.44 398.123 25.44C398.656 25.44 399.11 25.6267 399.483 26C399.856 26.3733 400.043 26.8267 400.043 27.36V32.24H420.603ZM432.245 34.16C432.245 33.4667 432.485 32.88 432.965 32.4C433.445 31.92 434.031 31.68 434.725 31.68C435.418 31.68 436.005 31.92 436.485 32.4C436.965 32.88 437.205 33.4667 437.205 34.16C437.205 34.8533 436.965 35.44 436.485 35.92C436.005 36.4 435.418 36.64 434.725 36.64C434.031 36.64 433.445 36.4 432.965 35.92C432.485 35.44 432.245 34.8533 432.245 34.16ZM436.645 27.36C436.645 27.8933 436.458 28.3467 436.085 28.72C435.711 29.0933 435.258 29.28 434.725 29.28C434.191 29.28 433.738 29.0933 433.365 28.72C432.991 28.3467 432.805 27.8933 432.805 27.36V20.56C432.805 20.0267 432.991 19.5733 433.365 19.2C433.738 18.8267 434.191 18.64 434.725 18.64C435.258 18.64 435.711 18.8267 436.085 19.2C436.458 19.5733 436.645 20.0267 436.645 20.56V27.36Z" fill="white"/>
<path d="M29.7958 40.933C38.1979 38.6816 43.1841 30.0453 40.9328 21.6432C38.6814 13.2411 30.0451 8.25497 21.643 10.5063C13.2409 12.7576 8.25475 21.3939 10.5061 29.796C12.7574 38.1981 21.3937 43.1843 29.7958 40.933Z" stroke="white" stroke-width="2" stroke-miterlimit="10"/>
<path d="M10.019 24.4914L38.7025 16.8057" stroke="white" stroke-width="2" stroke-linecap="round" stroke-linejoin="round"/>
<path d="M12.7368 34.6336L41.4203 26.9479" stroke="white" stroke-width="2" stroke-linecap="round" stroke-linejoin="round"/>
<path d="M29.6854 40.521C33.1863 39.5829 34.2487 32.1957 32.0583 24.0212C29.868 15.8466 25.2543 9.9803 21.7534 10.9184C18.2526 11.8564 17.1902 19.2436 19.3805 27.4182C21.5709 35.5927 26.1846 41.459 29.6854 40.521Z" stroke="white" stroke-width="2" stroke-miterlimit="10"/>
</svg>
