<svg width="252" height="42" viewBox="0 0 272 52" fill="none" xmlns="http://www.w3.org/2000/svg">
<path d="M54.5039 37.6289C54.5039 37.2383 54.7513 37.0234 55.2461 36.9844L57.9805 36.75C58.0716 36.724 58.1758 36.6719 58.293 36.5938C58.4232 36.5026 58.4883 36.3854 58.4883 36.2422V12.2578C58.4883 11.8672 58.4492 11.6068 58.3711 11.4766C58.293 11.3333 58.1628 11.2292 57.9805 11.1641C57.7331 11.099 57.4596 11.0469 57.1602 11.0078C56.8737 10.9557 56.5938 10.9102 56.3203 10.8711C56.0469 10.832 55.7995 10.7995 55.5781 10.7734C55.3568 10.7344 55.2005 10.6888 55.1094 10.6367C55.0443 10.6107 54.9987 10.5586 54.9727 10.4805C54.9596 10.3893 54.9531 10.3177 54.9531 10.2656C54.9531 10.1615 54.9922 10.0833 55.0703 10.0312C55.1615 9.97917 55.2656 9.9401 55.3828 9.91406C55.5 9.88802 55.6237 9.875 55.7539 9.875C55.8841 9.86198 56.0013 9.85547 56.1055 9.85547H57.1016C57.4271 9.85547 57.707 9.86198 57.9414 9.875C58.1888 9.88802 58.4167 9.90755 58.625 9.93359C58.8464 9.94661 59.0547 9.95964 59.25 9.97266C59.4453 9.98568 59.6536 9.99219 59.875 9.99219C60.4089 9.99219 60.9167 9.97917 61.3984 9.95312C61.8802 9.92708 62.3685 9.90104 62.8633 9.875C63.3581 9.84896 63.8724 9.82292 64.4062 9.79688C64.9401 9.77083 65.526 9.75781 66.1641 9.75781C66.2161 9.75781 66.2878 9.77083 66.3789 9.79688C66.4831 9.8099 66.5807 9.83594 66.6719 9.875C66.763 9.91406 66.8411 9.96615 66.9062 10.0312C66.9714 10.0833 67.0039 10.1484 67.0039 10.2266C67.0039 10.3698 66.9453 10.474 66.8281 10.5391C66.724 10.5911 66.6263 10.6432 66.5352 10.6953C66.431 10.6953 66.2487 10.7018 65.9883 10.7148C65.7409 10.7279 65.474 10.7474 65.1875 10.7734C64.901 10.7995 64.6276 10.832 64.3672 10.8711C64.1198 10.8971 63.9505 10.9297 63.8594 10.9688C63.7552 10.9688 63.6315 10.9883 63.4883 11.0273C63.3451 11.0534 63.2018 11.1055 63.0586 11.1836C62.9154 11.2487 62.7917 11.3464 62.6875 11.4766C62.5964 11.5938 62.5508 11.737 62.5508 11.9062V22.4922C62.5508 22.8047 62.707 22.9609 63.0195 22.9609H74.3867C74.5039 22.9609 74.6081 22.9284 74.6992 22.8633C74.8034 22.7852 74.8555 22.6745 74.8555 22.5312V12.3164C74.8555 11.9909 74.7773 11.7305 74.6211 11.5352C74.4779 11.3398 74.2891 11.1901 74.0547 11.0859C73.8333 10.9818 73.5859 10.9167 73.3125 10.8906C73.0521 10.8516 72.7982 10.832 72.5508 10.832H70.793C70.6237 10.832 70.4609 10.7734 70.3047 10.6562C70.1615 10.526 70.0898 10.3828 70.0898 10.2266C70.0898 10.0573 70.1615 9.9401 70.3047 9.875C70.4479 9.79688 70.6237 9.75781 70.832 9.75781H71.9844C72.5964 9.75781 73.1237 9.76432 73.5664 9.77734C74.0091 9.79036 74.4193 9.8099 74.7969 9.83594C75.1745 9.84896 75.5391 9.86198 75.8906 9.875C76.2552 9.88802 76.6654 9.89453 77.1211 9.89453C77.4857 9.89453 77.8112 9.88802 78.0977 9.875C78.3971 9.86198 78.7096 9.84896 79.0352 9.83594C79.3607 9.8099 79.7253 9.79036 80.1289 9.77734C80.5326 9.76432 81.0273 9.75781 81.6133 9.75781H83.0195C83.2279 9.75781 83.3711 9.80339 83.4492 9.89453C83.5273 9.98568 83.5664 10.0638 83.5664 10.1289C83.5664 10.2461 83.4883 10.3503 83.332 10.4414C83.1758 10.5326 82.9609 10.6042 82.6875 10.6562C82.3099 10.7344 81.9062 10.7865 81.4766 10.8125C81.0599 10.8385 80.6628 10.8971 80.2852 10.9883C79.9206 11.0664 79.6146 11.2031 79.3672 11.3984C79.1328 11.5938 79.0156 11.8997 79.0156 12.3164V34.6797C79.0156 35.1875 79.1003 35.5716 79.2695 35.832C79.4388 36.0794 79.6667 36.2617 79.9531 36.3789C80.2526 36.4961 80.5977 36.5742 80.9883 36.6133C81.3789 36.6393 81.8021 36.6849 82.2578 36.75C82.5573 36.8151 82.8047 36.8932 83 36.9844C83.1953 37.0755 83.293 37.2578 83.293 37.5312C83.293 37.7526 83.2148 37.9089 83.0586 38C82.9154 38.0911 82.7266 38.1367 82.4922 38.1367H81.3984C81.1771 38.1367 80.8776 38.1302 80.5 38.1172C80.1354 38.1042 79.7578 38.0846 79.3672 38.0586C78.9766 38.0456 78.612 38.0326 78.2734 38.0195C77.9479 38.0065 77.7201 38 77.5898 38C76.9258 38 76.3724 38.0065 75.9297 38.0195C75.5 38.0326 75.0768 38.0456 74.6602 38.0586C74.2435 38.0846 73.7812 38.1042 73.2734 38.1172C72.7786 38.1302 72.1341 38.1367 71.3398 38.1367C71.1185 38.1367 70.9297 38.0911 70.7734 38C70.6302 37.9219 70.5586 37.7656 70.5586 37.5312C70.5586 37.4401 70.5911 37.3294 70.6562 37.1992C70.7344 37.056 70.8516 36.9714 71.0078 36.9453L73.7031 36.6133C73.9766 36.5742 74.1849 36.4961 74.3281 36.3789C74.4844 36.2487 74.6016 36.0859 74.6797 35.8906C74.7578 35.6823 74.8034 35.4479 74.8164 35.1875C74.8424 34.9271 74.8555 34.6471 74.8555 34.3477V25.0312C74.8555 24.849 74.7904 24.6797 74.6602 24.5234C74.543 24.3672 74.3802 24.2891 74.1719 24.2891H63.0195C62.8763 24.2891 62.7591 24.3151 62.668 24.3672C62.5898 24.4193 62.5508 24.5169 62.5508 24.6602V35.1289C62.5508 35.5977 62.694 35.9492 62.9805 36.1836C63.2799 36.418 63.638 36.5872 64.0547 36.6914C64.4714 36.7956 64.9076 36.8607 65.3633 36.8867C65.819 36.8997 66.2096 36.9323 66.5352 36.9844C66.6914 37.0365 66.7826 37.1211 66.8086 37.2383C66.8477 37.3555 66.8672 37.4727 66.8672 37.5898C66.8672 37.8633 66.776 38.0195 66.5938 38.0586C66.4245 38.1107 66.2487 38.1367 66.0664 38.1367C65.5326 38.1367 65.0768 38.1302 64.6992 38.1172C64.3346 38.1042 63.957 38.0911 63.5664 38.0781C63.1758 38.0781 62.7266 38.0716 62.2188 38.0586C61.7109 38.0456 61.0534 38.0391 60.2461 38.0391C59.9336 38.0391 59.6341 38.0456 59.3477 38.0586C59.0612 38.0716 58.7682 38.0781 58.4688 38.0781C58.1823 38.0911 57.8828 38.1042 57.5703 38.1172C57.2708 38.1302 56.9388 38.1367 56.5742 38.1367H55.1484C54.9401 38.0846 54.7773 38.0391 54.6602 38C54.556 37.9609 54.5039 37.8372 54.5039 37.6289ZM102.766 25.5H89.25C89.1068 25.5521 89.0221 25.6107 88.9961 25.6758C88.9701 25.7279 88.944 25.8385 88.918 26.0078C88.8919 26.125 88.8659 26.3789 88.8398 26.7695C88.8268 27.1602 88.8203 27.6029 88.8203 28.0977C88.8203 28.5924 88.8789 29.0677 88.9961 29.5234C89.1133 29.9792 89.2435 30.4284 89.3867 30.8711C89.9336 32.4857 90.7865 33.7161 91.9453 34.5625C93.1172 35.4089 94.6536 35.832 96.5547 35.832C96.8411 35.832 97.1536 35.7799 97.4922 35.6758C97.8307 35.5716 98.1693 35.4414 98.5078 35.2852C98.8464 35.1159 99.1719 34.9206 99.4844 34.6992C99.7969 34.4779 100.07 34.25 100.305 34.0156C100.474 33.8594 100.611 33.6836 100.715 33.4883C100.832 33.2799 100.975 33.026 101.145 32.7266C101.197 32.6745 101.268 32.6354 101.359 32.6094C101.451 32.5703 101.529 32.5508 101.594 32.5508C101.828 32.5508 101.984 32.6289 102.062 32.7852C102.154 32.9284 102.199 33.1107 102.199 33.332C102.199 33.3971 102.173 33.4883 102.121 33.6055C102.082 33.7096 102.03 33.8203 101.965 33.9375C101.913 34.0547 101.848 34.1719 101.77 34.2891C101.704 34.3932 101.652 34.4714 101.613 34.5234C101.118 35.2656 100.493 35.9232 99.7383 36.4961C98.9831 37.056 98.0781 37.5117 97.0234 37.8633C96.7891 37.9284 96.3854 37.9805 95.8125 38.0195C95.2526 38.0716 94.6406 38.0977 93.9766 38.0977C93.3906 38.0977 92.7852 38.0195 92.1602 37.8633C91.5482 37.707 90.9492 37.4857 90.3633 37.1992C89.7773 36.9128 89.2305 36.5807 88.7227 36.2031C88.2279 35.8255 87.8177 35.4089 87.4922 34.9531C86.7891 33.9896 86.2682 33.013 85.9297 32.0234C85.6042 31.0339 85.4414 29.9271 85.4414 28.7031C85.4414 28.2604 85.4609 27.8438 85.5 27.4531C85.5521 27.0495 85.6302 26.6589 85.7344 26.2812C85.8516 25.9036 85.9948 25.5326 86.1641 25.168C86.3333 24.7904 86.5417 24.4062 86.7891 24.0156C87.2188 23.2995 87.707 22.6419 88.2539 22.043C88.8008 21.444 89.4062 20.9297 90.0703 20.5C90.7344 20.0703 91.4505 19.7383 92.2188 19.5039C92.987 19.2695 93.8138 19.1523 94.6992 19.1523C95.4414 19.1523 96.2096 19.2305 97.0039 19.3867C97.8112 19.5299 98.5859 19.8555 99.3281 20.3633C99.5625 20.5326 99.888 20.793 100.305 21.1445C100.721 21.4961 101.132 21.8932 101.535 22.3359C101.939 22.7656 102.29 23.2214 102.59 23.7031C102.889 24.1849 103.039 24.6471 103.039 25.0898C103.039 25.207 103.013 25.3047 102.961 25.3828C102.922 25.4609 102.857 25.5 102.766 25.5ZM89.7578 24.4453H98.4492C98.6706 24.4453 98.8008 24.4193 98.8398 24.3672C98.8919 24.3021 98.918 24.237 98.918 24.1719C98.918 23.8724 98.8398 23.5599 98.6836 23.2344C98.5404 22.9089 98.3581 22.6029 98.1367 22.3164C97.9284 22.0169 97.7135 21.75 97.4922 21.5156C97.2708 21.2812 97.082 21.099 96.9258 20.9688C96.5091 20.6172 96.0924 20.3893 95.6758 20.2852C95.2591 20.181 94.7839 20.1289 94.25 20.1289C94.0286 20.1289 93.8203 20.1354 93.625 20.1484C93.4427 20.1484 93.2604 20.1615 93.0781 20.1875C92.8958 20.2135 92.7135 20.2526 92.5312 20.3047C92.349 20.3568 92.1471 20.4349 91.9258 20.5391C91.6784 20.6562 91.4049 20.8451 91.1055 21.1055C90.819 21.3529 90.5456 21.6458 90.2852 21.9844C90.0378 22.3099 89.8229 22.668 89.6406 23.0586C89.4714 23.4492 89.3867 23.8333 89.3867 24.2109C89.3867 24.3672 89.5104 24.4453 89.7578 24.4453ZM104.191 37.8242C104.191 37.707 104.224 37.6094 104.289 37.5312C104.367 37.4401 104.452 37.375 104.543 37.3359C104.647 37.2839 104.751 37.2448 104.855 37.2188C104.96 37.1927 105.044 37.1797 105.109 37.1797H107.062C107.375 37.1797 107.531 36.9779 107.531 36.5742V15.3633C107.531 14.7383 107.473 14.2565 107.355 13.918C107.238 13.5664 107.089 13.306 106.906 13.1367C106.724 12.9674 106.516 12.8698 106.281 12.8438C106.06 12.8047 105.839 12.7852 105.617 12.7852C105.435 12.7852 105.272 12.7982 105.129 12.8242C104.986 12.8503 104.855 12.8828 104.738 12.9219C104.621 12.9479 104.504 12.974 104.387 13C104.27 13.026 104.146 13.0391 104.016 13.0391C103.898 13.0391 103.794 13.0195 103.703 12.9805C103.599 12.9284 103.547 12.8438 103.547 12.7266C103.547 12.5443 103.638 12.4076 103.82 12.3164C104.029 12.1732 104.243 12.0625 104.465 11.9844C104.686 11.8932 104.908 11.8216 105.129 11.7695C105.363 11.7044 105.598 11.6458 105.832 11.5938C106.066 11.5417 106.294 11.4766 106.516 11.3984C107.089 11.2031 107.512 11.0599 107.785 10.9688C108.059 10.8646 108.267 10.7799 108.41 10.7148C108.566 10.6367 108.703 10.5651 108.82 10.5C108.938 10.4349 109.126 10.3438 109.387 10.2266C109.725 10.0964 110.057 10.0312 110.383 10.0312C110.435 10.0312 110.52 10.0443 110.637 10.0703C110.754 10.0833 110.845 10.1354 110.91 10.2266C111.066 10.3958 111.145 10.7344 111.145 11.2422V36.5742C111.145 36.8477 111.223 37.0169 111.379 37.082C111.535 37.1341 111.704 37.1602 111.887 37.1602C112.186 37.1602 112.466 37.1406 112.727 37.1016C113 37.0495 113.286 37.0234 113.586 37.0234C113.755 37.0234 113.905 37.069 114.035 37.1602C114.165 37.2513 114.23 37.388 114.23 37.5703C114.23 37.7005 114.198 37.8307 114.133 37.9609C114.068 38.0781 113.977 38.1367 113.859 38.1367H113.215C112.733 38.1367 112.284 38.1237 111.867 38.0977C111.464 38.0846 111.066 38.0651 110.676 38.0391C110.285 38.013 109.901 37.9935 109.523 37.9805C109.146 37.9544 108.742 37.9414 108.312 37.9414C107.805 37.9414 107.323 37.974 106.867 38.0391C106.424 38.1042 105.995 38.1367 105.578 38.1367H104.523C104.445 38.1367 104.367 38.0977 104.289 38.0195C104.224 37.9544 104.191 37.8893 104.191 37.8242ZM115.285 37.8242C115.285 37.707 115.318 37.6094 115.383 37.5312C115.461 37.4401 115.546 37.375 115.637 37.3359C115.741 37.2839 115.845 37.2448 115.949 37.2188C116.053 37.1927 116.138 37.1797 116.203 37.1797H118.156C118.469 37.1797 118.625 36.9779 118.625 36.5742V15.3633C118.625 14.7383 118.566 14.2565 118.449 13.918C118.332 13.5664 118.182 13.306 118 13.1367C117.818 12.9674 117.609 12.8698 117.375 12.8438C117.154 12.8047 116.932 12.7852 116.711 12.7852C116.529 12.7852 116.366 12.7982 116.223 12.8242C116.079 12.8503 115.949 12.8828 115.832 12.9219C115.715 12.9479 115.598 12.974 115.48 13C115.363 13.026 115.24 13.0391 115.109 13.0391C114.992 13.0391 114.888 13.0195 114.797 12.9805C114.693 12.9284 114.641 12.8438 114.641 12.7266C114.641 12.5443 114.732 12.4076 114.914 12.3164C115.122 12.1732 115.337 12.0625 115.559 11.9844C115.78 11.8932 116.001 11.8216 116.223 11.7695C116.457 11.7044 116.691 11.6458 116.926 11.5938C117.16 11.5417 117.388 11.4766 117.609 11.3984C118.182 11.2031 118.605 11.0599 118.879 10.9688C119.152 10.8646 119.361 10.7799 119.504 10.7148C119.66 10.6367 119.797 10.5651 119.914 10.5C120.031 10.4349 120.22 10.3438 120.48 10.2266C120.819 10.0964 121.151 10.0312 121.477 10.0312C121.529 10.0312 121.613 10.0443 121.73 10.0703C121.848 10.0833 121.939 10.1354 122.004 10.2266C122.16 10.3958 122.238 10.7344 122.238 11.2422V36.5742C122.238 36.8477 122.316 37.0169 122.473 37.082C122.629 37.1341 122.798 37.1602 122.98 37.1602C123.28 37.1602 123.56 37.1406 123.82 37.1016C124.094 37.0495 124.38 37.0234 124.68 37.0234C124.849 37.0234 124.999 37.069 125.129 37.1602C125.259 37.2513 125.324 37.388 125.324 37.5703C125.324 37.7005 125.292 37.8307 125.227 37.9609C125.161 38.0781 125.07 38.1367 124.953 38.1367H124.309C123.827 38.1367 123.378 38.1237 122.961 38.0977C122.557 38.0846 122.16 38.0651 121.77 38.0391C121.379 38.013 120.995 37.9935 120.617 37.9805C120.24 37.9544 119.836 37.9414 119.406 37.9414C118.898 37.9414 118.417 37.974 117.961 38.0391C117.518 38.1042 117.089 38.1367 116.672 38.1367H115.617C115.539 38.1367 115.461 38.0977 115.383 38.0195C115.318 37.9544 115.285 37.8893 115.285 37.8242ZM126.965 28.8789C126.965 27.4987 127.193 26.2617 127.648 25.168C128.117 24.0612 128.762 23.1237 129.582 22.3555C130.402 21.5872 131.379 20.9948 132.512 20.5781C133.645 20.1615 134.888 19.9531 136.242 19.9531C136.542 19.9531 136.854 19.9857 137.18 20.0508C137.505 20.1159 137.831 20.207 138.156 20.3242C138.495 20.4284 138.82 20.5521 139.133 20.6953C139.458 20.8385 139.758 20.9883 140.031 21.1445C141.581 22.0039 142.733 23.1172 143.488 24.4844C144.257 25.8516 144.641 27.4141 144.641 29.1719C144.641 30.3568 144.432 31.4961 144.016 32.5898C143.612 33.6706 142.993 34.6536 142.16 35.5391C141.327 36.3984 140.376 37.0234 139.309 37.4141C138.241 37.8047 137.121 38 135.949 38C135.09 38 134.243 37.9219 133.41 37.7656C132.59 37.6094 131.77 37.2383 130.949 36.6523C129.582 35.6628 128.573 34.5365 127.922 33.2734C127.284 32.0104 126.965 30.5456 126.965 28.8789ZM130.305 28.9766C130.305 29.4974 130.35 30.0573 130.441 30.6562C130.533 31.2552 130.669 31.8607 130.852 32.4727C131.047 33.0716 131.288 33.6576 131.574 34.2305C131.874 34.7904 132.225 35.2917 132.629 35.7344C133.033 36.1641 133.501 36.5091 134.035 36.7695C134.569 37.0299 135.161 37.1602 135.812 37.1602C136.229 37.1602 136.594 37.1211 136.906 37.043C137.219 36.9518 137.499 36.8281 137.746 36.6719C138.007 36.5156 138.241 36.3333 138.449 36.125C138.671 35.9036 138.885 35.6628 139.094 35.4023C139.458 34.9336 139.771 34.4193 140.031 33.8594C140.292 33.2995 140.507 32.7266 140.676 32.1406C140.845 31.5547 140.962 30.9753 141.027 30.4023C141.105 29.8164 141.145 29.263 141.145 28.7422C141.145 28.2474 141.092 27.7005 140.988 27.1016C140.884 26.4896 140.715 25.8776 140.48 25.2656C140.259 24.6406 139.973 24.0352 139.621 23.4492C139.27 22.8633 138.846 22.3424 138.352 21.8867C137.974 21.5221 137.57 21.2552 137.141 21.0859C136.711 20.9167 136.359 20.832 136.086 20.832C135.474 20.832 134.94 20.8971 134.484 21.0273C134.029 21.1445 133.625 21.3268 133.273 21.5742C132.922 21.8216 132.596 22.1341 132.297 22.5117C132.01 22.8893 131.717 23.332 131.418 23.8398C130.91 24.6992 130.598 25.5521 130.48 26.3984C130.363 27.2448 130.305 28.1042 130.305 28.9766ZM177.004 13.5273L181.535 29.9336C181.665 30.4935 181.835 30.7734 182.043 30.7734C182.329 30.7734 182.538 30.5326 182.668 30.0508L187.551 16.1055C187.72 15.6107 187.863 15.1354 187.98 14.6797C188.098 14.224 188.156 13.7878 188.156 13.3711C188.156 13.2148 188.143 13.0391 188.117 12.8438C188.104 12.6484 188.072 12.5182 188.02 12.4531C187.772 12.1667 187.505 11.9323 187.219 11.75C186.945 11.5677 186.652 11.4115 186.34 11.2812C186.04 11.151 185.728 11.0404 185.402 10.9492C185.077 10.8581 184.745 10.7539 184.406 10.6367C184.315 10.6107 184.27 10.5065 184.27 10.3242C184.27 10.1029 184.354 9.95964 184.523 9.89453C184.706 9.81641 184.901 9.77734 185.109 9.77734C185.435 9.77734 185.826 9.79688 186.281 9.83594C186.737 9.86198 187.219 9.89453 187.727 9.93359C188.247 9.97266 188.762 10.0117 189.27 10.0508C189.79 10.0768 190.272 10.0898 190.715 10.0898C191.105 10.0898 191.49 10.0768 191.867 10.0508C192.245 10.0247 192.661 9.97917 193.117 9.91406C193.273 9.90104 193.469 9.875 193.703 9.83594C193.938 9.78385 194.126 9.75781 194.27 9.75781C194.335 9.75781 194.413 9.76432 194.504 9.77734C194.595 9.77734 194.68 9.79688 194.758 9.83594C194.849 9.86198 194.921 9.90104 194.973 9.95312C195.038 10.0052 195.07 10.0703 195.07 10.1484C195.07 10.2786 194.94 10.4089 194.68 10.5391C194.419 10.6693 194.113 10.793 193.762 10.9102C193.423 11.0273 193.085 11.138 192.746 11.2422C192.421 11.3464 192.186 11.4375 192.043 11.5156C191.887 11.5938 191.698 11.7305 191.477 11.9258C191.255 12.1211 191.04 12.3359 190.832 12.5703C190.637 12.7917 190.461 13.0065 190.305 13.2148C190.161 13.4102 190.077 13.5534 190.051 13.6445L182.277 33.332C182.199 33.5404 182.089 33.8398 181.945 34.2305C181.802 34.6081 181.659 35.0052 181.516 35.4219C181.372 35.8385 181.229 36.2357 181.086 36.6133C180.956 36.9779 180.865 37.2383 180.812 37.3945C180.682 37.7721 180.513 37.9609 180.305 37.9609C180.161 37.9609 180.051 37.8893 179.973 37.7461C179.895 37.5898 179.829 37.4401 179.777 37.2969C179.087 34.901 178.371 32.4271 177.629 29.875C176.887 27.3229 176.112 24.7969 175.305 22.2969C175.292 22.1146 175.201 22.0234 175.031 22.0234C174.888 22.0234 174.79 22.1211 174.738 22.3164L169.523 34.9531C169.471 35.0703 169.406 35.2526 169.328 35.5C169.263 35.7474 169.185 36.0208 169.094 36.3203C169.003 36.6068 168.905 36.8932 168.801 37.1797C168.697 37.4661 168.592 37.694 168.488 37.8633C168.397 38.0195 168.293 38.0977 168.176 38.0977C168.033 38.0977 167.915 38.0586 167.824 37.9805C167.746 37.8893 167.661 37.7526 167.57 37.5703L158.547 14.1719C158.469 14.0026 158.358 13.7878 158.215 13.5273C158.072 13.2539 157.896 12.9805 157.688 12.707C157.479 12.4336 157.232 12.1797 156.945 11.9453C156.672 11.6979 156.372 11.5091 156.047 11.3789C155.969 11.3268 155.871 11.2943 155.754 11.2812C155.637 11.2552 155.52 11.2422 155.402 11.2422C155.22 11.2422 155.038 11.2357 154.855 11.2227C154.673 11.1966 154.51 11.1641 154.367 11.125C154.224 11.0729 154.107 11.0013 154.016 10.9102C153.911 10.819 153.859 10.6953 153.859 10.5391C153.859 10.2656 153.924 10.0898 154.055 10.0117C154.185 9.93359 154.367 9.89453 154.602 9.89453C154.706 9.89453 154.96 9.90755 155.363 9.93359C155.78 9.94661 156.262 9.96615 156.809 9.99219C157.355 10.0182 157.928 10.0443 158.527 10.0703C159.126 10.0833 159.66 10.0898 160.129 10.0898C160.546 10.0898 160.969 10.0833 161.398 10.0703C161.828 10.0443 162.232 10.0247 162.609 10.0117C163 9.98568 163.352 9.96615 163.664 9.95312C163.99 9.92708 164.243 9.91406 164.426 9.91406H164.875C165.161 9.91406 165.415 9.95964 165.637 10.0508C165.871 10.1419 165.988 10.2917 165.988 10.5C165.988 10.6172 165.943 10.7344 165.852 10.8516C165.76 10.9557 165.65 11.0078 165.52 11.0078H164.152C163.801 11.0078 163.495 11.0599 163.234 11.1641C162.974 11.2552 162.798 11.3724 162.707 11.5156C162.616 11.6328 162.551 11.7956 162.512 12.0039C162.486 12.2122 162.473 12.375 162.473 12.4922C162.473 12.6224 162.492 12.7982 162.531 13.0195C162.583 13.2409 162.642 13.4818 162.707 13.7422C162.785 14.0026 162.87 14.2695 162.961 14.543C163.052 14.8164 163.137 15.0573 163.215 15.2656L168.957 30.1875C169.048 30.3958 169.172 30.5846 169.328 30.7539C169.484 30.9232 169.621 31.0078 169.738 31.0078C169.868 31.0078 170.057 30.7279 170.305 30.168C170.526 29.6732 170.786 29.0807 171.086 28.3906C171.385 27.7005 171.691 26.9779 172.004 26.2227C172.329 25.4674 172.648 24.7122 172.961 23.957C173.273 23.2018 173.56 22.4987 173.82 21.8477C174.003 21.3919 174.133 20.9883 174.211 20.6367C174.289 20.2721 174.328 19.9922 174.328 19.7969C174.328 19.4714 174.289 19.0547 174.211 18.5469C174.133 18.0391 174.016 17.4987 173.859 16.9258C173.716 16.3398 173.547 15.7409 173.352 15.1289C173.156 14.5169 172.941 13.9505 172.707 13.4297C172.473 12.8958 172.225 12.4336 171.965 12.043C171.704 11.6523 171.444 11.3854 171.184 11.2422C171.118 11.1901 170.988 11.1641 170.793 11.1641C170.611 11.151 170.448 11.1445 170.305 11.1445C170.24 11.1445 170.103 11.1445 169.895 11.1445C169.686 11.1315 169.465 11.1185 169.23 11.1055C168.996 11.0924 168.775 11.0794 168.566 11.0664C168.358 11.0404 168.228 11.0208 168.176 11.0078C167.967 10.9167 167.844 10.832 167.805 10.7539C167.779 10.6758 167.766 10.5651 167.766 10.4219C167.766 10.2526 167.824 10.1029 167.941 9.97266C168.059 9.84245 168.208 9.77734 168.391 9.77734C168.951 9.77734 169.439 9.79036 169.855 9.81641C170.285 9.84245 170.708 9.875 171.125 9.91406C171.555 9.95312 172.004 9.98568 172.473 10.0117C172.954 10.0378 173.527 10.0508 174.191 10.0508C174.855 10.0508 175.435 10.0443 175.93 10.0312C176.424 10.0182 176.887 10.0052 177.316 9.99219C177.759 9.96615 178.195 9.94661 178.625 9.93359C179.055 9.92057 179.523 9.91406 180.031 9.91406C180.24 9.91406 180.376 10.0052 180.441 10.1875C180.507 10.3698 180.539 10.5651 180.539 10.7734C180.539 10.8516 180.5 10.9167 180.422 10.9688C180.344 11.0078 180.253 11.0404 180.148 11.0664C180.044 11.0924 179.94 11.112 179.836 11.125C179.745 11.138 179.686 11.1445 179.66 11.1445H177.844C177.766 11.1445 177.668 11.1576 177.551 11.1836C177.434 11.2096 177.323 11.2552 177.219 11.3203C177.128 11.3854 177.043 11.4831 176.965 11.6133C176.9 11.7435 176.867 11.9128 176.867 12.1211C176.867 12.3945 176.874 12.6549 176.887 12.9023C176.913 13.1367 176.952 13.3451 177.004 13.5273ZM192.473 28.8789C192.473 27.4987 192.701 26.2617 193.156 25.168C193.625 24.0612 194.27 23.1237 195.09 22.3555C195.91 21.5872 196.887 20.9948 198.02 20.5781C199.152 20.1615 200.396 19.9531 201.75 19.9531C202.049 19.9531 202.362 19.9857 202.688 20.0508C203.013 20.1159 203.339 20.207 203.664 20.3242C204.003 20.4284 204.328 20.5521 204.641 20.6953C204.966 20.8385 205.266 20.9883 205.539 21.1445C207.089 22.0039 208.241 23.1172 208.996 24.4844C209.764 25.8516 210.148 27.4141 210.148 29.1719C210.148 30.3568 209.94 31.4961 209.523 32.5898C209.12 33.6706 208.501 34.6536 207.668 35.5391C206.835 36.3984 205.884 37.0234 204.816 37.4141C203.749 37.8047 202.629 38 201.457 38C200.598 38 199.751 37.9219 198.918 37.7656C198.098 37.6094 197.277 37.2383 196.457 36.6523C195.09 35.6628 194.081 34.5365 193.43 33.2734C192.792 32.0104 192.473 30.5456 192.473 28.8789ZM195.812 28.9766C195.812 29.4974 195.858 30.0573 195.949 30.6562C196.04 31.2552 196.177 31.8607 196.359 32.4727C196.555 33.0716 196.796 33.6576 197.082 34.2305C197.382 34.7904 197.733 35.2917 198.137 35.7344C198.54 36.1641 199.009 36.5091 199.543 36.7695C200.077 37.0299 200.669 37.1602 201.32 37.1602C201.737 37.1602 202.102 37.1211 202.414 37.043C202.727 36.9518 203.007 36.8281 203.254 36.6719C203.514 36.5156 203.749 36.3333 203.957 36.125C204.178 35.9036 204.393 35.6628 204.602 35.4023C204.966 34.9336 205.279 34.4193 205.539 33.8594C205.799 33.2995 206.014 32.7266 206.184 32.1406C206.353 31.5547 206.47 30.9753 206.535 30.4023C206.613 29.8164 206.652 29.263 206.652 28.7422C206.652 28.2474 206.6 27.7005 206.496 27.1016C206.392 26.4896 206.223 25.8776 205.988 25.2656C205.767 24.6406 205.48 24.0352 205.129 23.4492C204.777 22.8633 204.354 22.3424 203.859 21.8867C203.482 21.5221 203.078 21.2552 202.648 21.0859C202.219 20.9167 201.867 20.832 201.594 20.832C200.982 20.832 200.448 20.8971 199.992 21.0273C199.536 21.1445 199.133 21.3268 198.781 21.5742C198.43 21.8216 198.104 22.1341 197.805 22.5117C197.518 22.8893 197.225 23.332 196.926 23.8398C196.418 24.6992 196.105 25.5521 195.988 26.3984C195.871 27.2448 195.812 28.1042 195.812 28.9766ZM215.48 36.4375V25.7344C215.48 25.3438 215.474 24.9336 215.461 24.5039C215.461 24.0612 215.435 23.651 215.383 23.2734C215.344 22.8958 215.272 22.5768 215.168 22.3164C215.077 22.043 214.947 21.8672 214.777 21.7891C214.465 21.6458 214.081 21.5742 213.625 21.5742C213.326 21.5742 213.046 21.5872 212.785 21.6133C212.538 21.6393 212.31 21.6523 212.102 21.6523C212.036 21.6523 211.978 21.6263 211.926 21.5742C211.874 21.5221 211.848 21.4701 211.848 21.418C211.848 21.2747 211.893 21.1901 211.984 21.1641C212.388 20.9297 212.798 20.7669 213.215 20.6758C213.632 20.5846 214.061 20.4674 214.504 20.3242C214.895 20.207 215.292 20.0833 215.695 19.9531C216.099 19.8229 216.47 19.6536 216.809 19.4453C217.043 19.3281 217.258 19.2044 217.453 19.0742C217.648 18.944 217.896 18.8789 218.195 18.8789C218.273 18.8789 218.345 18.931 218.41 19.0352C218.488 19.1263 218.527 19.1979 218.527 19.25V20.3242C218.527 20.4284 218.527 20.5521 218.527 20.6953C218.54 20.8385 218.547 20.9818 218.547 21.125C218.56 21.2682 218.573 21.4049 218.586 21.5352C218.599 21.6523 218.612 21.737 218.625 21.7891C218.638 21.8411 218.658 21.8802 218.684 21.9062L218.703 21.9258C218.781 21.9258 218.853 21.8867 218.918 21.8086C218.983 21.7174 219.055 21.6068 219.133 21.4766C219.224 21.3333 219.322 21.1771 219.426 21.0078C219.543 20.8385 219.693 20.6693 219.875 20.5C220.122 20.2526 220.396 20.0247 220.695 19.8164C221.008 19.5951 221.327 19.4062 221.652 19.25C221.991 19.0938 222.329 18.9701 222.668 18.8789C223.02 18.7878 223.365 18.7422 223.703 18.7422C224.198 18.7422 224.706 18.7878 225.227 18.8789C225.747 18.957 226.216 19.1068 226.633 19.3281C227.062 19.5365 227.414 19.8359 227.688 20.2266C227.961 20.6172 228.098 21.112 228.098 21.7109C228.098 22.0365 228.026 22.3359 227.883 22.6094C227.753 22.8828 227.57 23.1172 227.336 23.3125C227.115 23.5078 226.854 23.6641 226.555 23.7812C226.268 23.8854 225.969 23.9375 225.656 23.9375C225.448 23.9375 225.227 23.9049 224.992 23.8398C224.758 23.7747 224.608 23.6966 224.543 23.6055C224.139 23.2409 223.859 22.7461 223.703 22.1211C223.638 21.7695 223.592 21.4766 223.566 21.2422C223.553 20.9948 223.501 20.806 223.41 20.6758C223.332 20.5326 223.195 20.4349 223 20.3828C222.805 20.3177 222.499 20.2852 222.082 20.2852C221.743 20.2852 221.392 20.3763 221.027 20.5586C220.676 20.7279 220.344 20.9492 220.031 21.2227C219.732 21.4961 219.471 21.8021 219.25 22.1406C219.029 22.4661 218.898 22.7852 218.859 23.0977C218.794 23.3841 218.755 23.6966 218.742 24.0352C218.742 24.3607 218.742 24.6992 218.742 25.0508V36.7891C218.82 36.9583 218.964 37.069 219.172 37.1211C219.38 37.1602 219.615 37.1797 219.875 37.1797C219.953 37.1797 220.057 37.1797 220.188 37.1797C220.331 37.1667 220.474 37.1602 220.617 37.1602C220.773 37.1471 220.91 37.1406 221.027 37.1406C221.145 37.1276 221.223 37.1211 221.262 37.1211C221.561 37.1211 221.802 37.1602 221.984 37.2383C222.18 37.3034 222.277 37.4531 222.277 37.6875C222.277 37.8438 222.199 37.987 222.043 38.1172C221.9 38.2474 221.757 38.319 221.613 38.332C220.897 38.2148 220.161 38.1302 219.406 38.0781C218.664 38.026 217.922 38 217.18 38C216.398 38 215.669 38.0326 214.992 38.0977C214.315 38.1628 213.612 38.1953 212.883 38.1953C212.74 38.1953 212.57 38.1432 212.375 38.0391C212.193 37.9349 212.102 37.7982 212.102 37.6289C212.102 37.5247 212.134 37.4336 212.199 37.3555C212.264 37.2773 212.342 37.2188 212.434 37.1797C212.538 37.1276 212.635 37.0885 212.727 37.0625C212.831 37.0365 212.915 37.0234 212.98 37.0234C213.124 37.0234 213.26 37.0299 213.391 37.043C213.534 37.056 213.684 37.069 213.84 37.082C213.957 37.1081 214.081 37.1276 214.211 37.1406C214.341 37.1536 214.465 37.1602 214.582 37.1602C214.66 37.1602 214.745 37.1406 214.836 37.1016C214.94 37.0625 215.038 37.0104 215.129 36.9453C215.233 36.8672 215.318 36.7891 215.383 36.7109C215.448 36.6198 215.48 36.5286 215.48 36.4375ZM228.332 37.8242C228.332 37.707 228.365 37.6094 228.43 37.5312C228.508 37.4401 228.592 37.375 228.684 37.3359C228.788 37.2839 228.892 37.2448 228.996 37.2188C229.1 37.1927 229.185 37.1797 229.25 37.1797H231.203C231.516 37.1797 231.672 36.9779 231.672 36.5742V15.3633C231.672 14.7383 231.613 14.2565 231.496 13.918C231.379 13.5664 231.229 13.306 231.047 13.1367C230.865 12.9674 230.656 12.8698 230.422 12.8438C230.201 12.8047 229.979 12.7852 229.758 12.7852C229.576 12.7852 229.413 12.7982 229.27 12.8242C229.126 12.8503 228.996 12.8828 228.879 12.9219C228.762 12.9479 228.645 12.974 228.527 13C228.41 13.026 228.286 13.0391 228.156 13.0391C228.039 13.0391 227.935 13.0195 227.844 12.9805C227.74 12.9284 227.688 12.8438 227.688 12.7266C227.688 12.5443 227.779 12.4076 227.961 12.3164C228.169 12.1732 228.384 12.0625 228.605 11.9844C228.827 11.8932 229.048 11.8216 229.27 11.7695C229.504 11.7044 229.738 11.6458 229.973 11.5938C230.207 11.5417 230.435 11.4766 230.656 11.3984C231.229 11.2031 231.652 11.0599 231.926 10.9688C232.199 10.8646 232.408 10.7799 232.551 10.7148C232.707 10.6367 232.844 10.5651 232.961 10.5C233.078 10.4349 233.267 10.3438 233.527 10.2266C233.866 10.0964 234.198 10.0312 234.523 10.0312C234.576 10.0312 234.66 10.0443 234.777 10.0703C234.895 10.0833 234.986 10.1354 235.051 10.2266C235.207 10.3958 235.285 10.7344 235.285 11.2422V36.5742C235.285 36.8477 235.363 37.0169 235.52 37.082C235.676 37.1341 235.845 37.1602 236.027 37.1602C236.327 37.1602 236.607 37.1406 236.867 37.1016C237.141 37.0495 237.427 37.0234 237.727 37.0234C237.896 37.0234 238.046 37.069 238.176 37.1602C238.306 37.2513 238.371 37.388 238.371 37.5703C238.371 37.7005 238.339 37.8307 238.273 37.9609C238.208 38.0781 238.117 38.1367 238 38.1367H237.355C236.874 38.1367 236.424 38.1237 236.008 38.0977C235.604 38.0846 235.207 38.0651 234.816 38.0391C234.426 38.013 234.042 37.9935 233.664 37.9805C233.286 37.9544 232.883 37.9414 232.453 37.9414C231.945 37.9414 231.464 37.974 231.008 38.0391C230.565 38.1042 230.135 38.1367 229.719 38.1367H228.664C228.586 38.1367 228.508 38.0977 228.43 38.0195C228.365 37.9544 228.332 37.8893 228.332 37.8242ZM240.148 29.2891C240.174 28.2995 240.344 27.375 240.656 26.5156C240.969 25.6562 241.392 24.8685 241.926 24.1523C242.46 23.4362 243.078 22.7982 243.781 22.2383C244.497 21.6784 245.266 21.1966 246.086 20.793C246.503 20.5977 246.971 20.4219 247.492 20.2656C248.026 20.1094 248.54 20.0312 249.035 20.0312C249.4 20.0312 249.829 20.0964 250.324 20.2266C250.819 20.3438 251.288 20.4805 251.73 20.6367C252.173 20.7799 252.551 20.9167 252.863 21.0469C253.176 21.1641 253.339 21.2292 253.352 21.2422C253.378 21.2682 253.469 21.2812 253.625 21.2812V15.3633C253.625 14.7773 253.612 14.2695 253.586 13.8398C253.573 13.3971 253.514 13.0326 253.41 12.7461C253.319 12.4596 253.163 12.2513 252.941 12.1211C252.72 11.9779 252.408 11.9062 252.004 11.9062C251.952 11.9062 251.874 11.9193 251.77 11.9453C251.665 11.9583 251.548 11.9844 251.418 12.0234C251.288 12.0495 251.158 12.0755 251.027 12.1016C250.897 12.1146 250.78 12.1211 250.676 12.1211C250.637 12.1211 250.546 12.1146 250.402 12.1016C250.259 12.0885 250.103 12.0625 249.934 12.0234C249.777 11.9844 249.634 11.9323 249.504 11.8672C249.387 11.8021 249.328 11.7174 249.328 11.6133C249.328 11.5612 249.348 11.5156 249.387 11.4766C249.439 11.4245 249.51 11.3984 249.602 11.3984C249.914 11.3724 250.266 11.3268 250.656 11.2617C251.047 11.1836 251.418 11.112 251.77 11.0469C252.134 10.9688 252.447 10.8971 252.707 10.832C252.98 10.7669 253.15 10.7214 253.215 10.6953C253.632 10.6172 254.055 10.526 254.484 10.4219C254.914 10.3177 255.337 10.207 255.754 10.0898C255.819 10.0638 255.904 10.0182 256.008 9.95312C256.125 9.88802 256.242 9.85547 256.359 9.85547C256.568 9.85547 256.743 9.91406 256.887 10.0312C257.03 10.1354 257.102 10.2331 257.102 10.3242V36.3789C257.362 36.3398 257.648 36.2943 257.961 36.2422C258.286 36.1771 258.605 36.1185 258.918 36.0664C259.243 36.0143 259.549 35.9688 259.836 35.9297C260.135 35.8906 260.383 35.8711 260.578 35.8711C260.721 35.8711 260.799 35.9102 260.812 35.9883C260.839 36.0534 260.852 36.1185 260.852 36.1836C260.852 36.3659 260.806 36.4766 260.715 36.5156C260.363 36.6068 260.064 36.6654 259.816 36.6914C259.569 36.7044 259.296 36.737 258.996 36.7891C258.553 36.8672 258.085 36.9844 257.59 37.1406C257.095 37.2969 256.62 37.4596 256.164 37.6289C255.617 37.8372 255.161 38.0065 254.797 38.1367C254.445 38.2669 254.133 38.332 253.859 38.332C253.586 38.332 253.449 38.2083 253.449 37.9609C253.449 37.7005 253.475 37.4401 253.527 37.1797C253.592 36.9062 253.625 36.6589 253.625 36.4375C253.625 36.3724 253.618 36.2617 253.605 36.1055C253.592 35.9362 253.579 35.8255 253.566 35.7734C253.527 35.6823 253.456 35.6367 253.352 35.6367C253.286 35.6367 253.117 35.7539 252.844 35.9883C252.583 36.2227 252.284 36.4896 251.945 36.7891C251.607 37.0755 251.262 37.3555 250.91 37.6289C250.572 37.9023 250.285 38.0716 250.051 38.1367C249.712 38.2409 249.354 38.3125 248.977 38.3516C248.612 38.3906 248.26 38.4102 247.922 38.4102C246.711 38.4102 245.624 38.1497 244.66 37.6289C243.697 37.0951 242.876 36.3984 242.199 35.5391C241.535 34.6797 241.027 33.7096 240.676 32.6289C240.324 31.5352 240.148 30.4219 240.148 29.2891ZM253.625 34.5625V23.7422C253.234 23.7422 252.805 23.5599 252.336 23.1953C252.076 22.974 251.848 22.7266 251.652 22.4531C251.47 22.1797 251.249 21.9258 250.988 21.6914C250.728 21.444 250.396 21.2422 249.992 21.0859C249.602 20.9167 249.068 20.832 248.391 20.832C247.818 20.832 247.31 20.9622 246.867 21.2227C246.424 21.4701 246.034 21.8086 245.695 22.2383C245.37 22.6549 245.09 23.1367 244.855 23.6836C244.634 24.2174 244.452 24.7708 244.309 25.3438C244.165 25.9167 244.061 26.4766 243.996 27.0234C243.931 27.5703 243.898 28.0651 243.898 28.5078C243.898 28.9375 243.898 29.3737 243.898 29.8164C243.911 30.2461 243.944 30.6693 243.996 31.0859C244.048 31.5026 244.133 31.9062 244.25 32.2969C244.367 32.6745 244.53 33.0326 244.738 33.3711C245.051 33.8789 245.376 34.3542 245.715 34.7969C246.053 35.2396 246.411 35.6302 246.789 35.9688C247.167 36.2943 247.564 36.5547 247.98 36.75C248.41 36.9323 248.859 37.0234 249.328 37.0234C249.484 37.0234 249.699 36.9909 249.973 36.9258C250.246 36.8607 250.539 36.7695 250.852 36.6523C251.177 36.5352 251.503 36.3984 251.828 36.2422C252.154 36.0729 252.447 35.8971 252.707 35.7148C252.98 35.5326 253.202 35.3438 253.371 35.1484C253.54 34.9531 253.625 34.7578 253.625 34.5625ZM263.566 35.6758C263.579 35.6367 263.605 35.5521 263.645 35.4219C263.697 35.2917 263.755 35.1484 263.82 34.9922C263.898 34.8359 263.97 34.6862 264.035 34.543C264.1 34.3997 264.159 34.2891 264.211 34.2109C264.354 33.9245 264.582 33.7487 264.895 33.6836C265.207 33.6055 265.5 33.5664 265.773 33.5664C266.034 33.5664 266.288 33.6315 266.535 33.7617C266.783 33.8789 267.004 34.0352 267.199 34.2305C267.395 34.4258 267.551 34.6471 267.668 34.8945C267.798 35.1419 267.863 35.3893 267.863 35.6367C267.863 35.9102 267.811 36.1901 267.707 36.4766C267.616 36.75 267.473 36.9974 267.277 37.2188C267.095 37.4401 266.874 37.6224 266.613 37.7656C266.366 37.8958 266.086 37.9609 265.773 37.9609C265.461 37.9609 265.161 37.9023 264.875 37.7852C264.589 37.668 264.335 37.5117 264.113 37.3164C263.905 37.1081 263.742 36.8672 263.625 36.5938C263.521 36.3073 263.501 36.0013 263.566 35.6758ZM266.281 29.2891C266.138 29.2891 266.008 29.1784 265.891 28.957C265.786 28.7357 265.695 28.4427 265.617 28.0781C265.539 27.7005 265.474 27.2773 265.422 26.8086C265.37 26.3268 265.318 25.8385 265.266 25.3438C265.227 24.849 265.188 24.3607 265.148 23.8789C265.122 23.3971 265.09 22.9674 265.051 22.5898C264.999 22.082 264.947 21.6133 264.895 21.1836C264.855 20.7539 264.81 20.3372 264.758 19.9336C264.706 19.5169 264.647 19.1003 264.582 18.6836C264.53 18.2539 264.465 17.7982 264.387 17.3164C264.204 16.2487 264.003 15.207 263.781 14.1914C263.573 13.1758 263.469 12.1471 263.469 11.1055C263.469 10.8581 263.534 10.6432 263.664 10.4609C263.794 10.2656 263.957 10.1094 264.152 9.99219C264.348 9.86198 264.562 9.77083 264.797 9.71875C265.031 9.65365 265.253 9.62109 265.461 9.62109C265.695 9.62109 265.943 9.64714 266.203 9.69922C266.477 9.7513 266.717 9.84245 266.926 9.97266C267.147 10.0898 267.329 10.2461 267.473 10.4414C267.616 10.6367 267.688 10.8776 267.688 11.1641C267.688 12.362 267.642 13.5534 267.551 14.7383C267.473 15.9232 267.375 17.1081 267.258 18.293C267.154 19.4648 267.056 20.6432 266.965 21.8281C266.887 23 266.848 24.1784 266.848 25.3633L266.945 27.5508C266.971 27.6159 266.991 27.7526 267.004 27.9609C267.017 28.1693 267.023 28.3646 267.023 28.5469C267.023 28.7292 266.932 28.8984 266.75 29.0547C266.581 29.2109 266.424 29.2891 266.281 29.2891Z" fill="white"/>
<path d="M30.0764 41.2133C38.4785 38.962 43.4647 30.3257 41.2133 21.9236C38.962 13.5215 30.3257 8.53533 21.9236 10.7867C13.5215 13.038 8.53533 21.6743 10.7867 30.0764C13.038 38.4785 21.6743 43.4647 30.0764 41.2133Z" stroke="white" stroke-width="2" stroke-miterlimit="10"/>
<path d="M10.2994 24.7718L38.9829 17.086" stroke="white" stroke-width="2" stroke-linecap="round" stroke-linejoin="round"/>
<path d="M13.017 34.914L41.7005 27.2283" stroke="white" stroke-width="2" stroke-linecap="round" stroke-linejoin="round"/>
<path d="M29.966 40.8013C33.4668 39.8633 34.5292 32.4761 32.3388 24.3015C30.1485 16.127 25.5348 10.2607 22.034 11.1987C18.5331 12.1368 17.4707 19.524 19.6611 27.6985C21.8514 35.8731 26.4651 41.7394 29.966 40.8013Z" stroke="white" stroke-width="2" stroke-miterlimit="10"/>
</svg>
