<svg width="820" height="236" viewBox="0 0 820 236" fill="none" xmlns="http://www.w3.org/2000/svg">
<path d="M709.504 217.406H718.752V219.105H711.457V223.109H717.092V224.75H711.457V231H709.504V217.406ZM721.34 217.406H725.197C727.769 217.406 729.426 218.168 730.168 219.691C730.435 220.251 730.568 220.883 730.568 221.586C730.568 222.283 730.474 222.872 730.285 223.354C730.103 223.835 729.846 224.249 729.514 224.594C728.876 225.258 727.997 225.694 726.877 225.902C727.339 227.328 728.124 228.311 729.23 228.852C729.595 229.034 729.901 229.132 730.148 229.145C730.565 229.158 730.858 229.145 731.027 229.105V231H730.588C729.123 231 727.876 230.479 726.848 229.438C725.943 228.533 725.334 227.393 725.021 226.02H723.293V231H721.34V217.406ZM725.07 224.457C726.249 224.457 727.121 224.229 727.688 223.773C728.254 223.318 728.537 222.608 728.537 221.645C728.537 220.362 727.941 219.535 726.75 219.164C726.333 219.034 725.829 218.969 725.236 218.969H723.293V224.457H725.07ZM732.424 224.223C732.424 223.161 732.583 222.201 732.902 221.342C733.221 220.482 733.664 219.75 734.23 219.145C735.422 217.882 736.968 217.25 738.869 217.25C740.777 217.25 742.32 217.882 743.498 219.145C744.696 220.427 745.295 222.12 745.295 224.223C745.295 226.326 744.696 228.012 743.498 229.281C742.326 230.531 740.783 231.156 738.869 231.156C736.962 231.156 735.415 230.531 734.23 229.281C733.026 228.005 732.424 226.319 732.424 224.223ZM734.377 224.213C734.377 225.697 734.738 226.924 735.461 227.895C736.275 228.975 737.411 229.516 738.869 229.516C740.327 229.516 741.46 228.975 742.268 227.895C742.984 226.938 743.342 225.717 743.342 224.232C743.342 222.735 742.984 221.501 742.268 220.531C741.46 219.438 740.327 218.891 738.869 218.891C737.404 218.891 736.268 219.438 735.461 220.531C734.738 221.501 734.377 222.729 734.377 224.213ZM747.854 217.406H749.26L756.359 227.436L756.252 226.029V217.406H758.186V231H756.789L750.861 222.67L749.68 220.971L749.787 222.67V231H747.854V217.406ZM764.533 219.125H760.441V217.406H770.578V219.125H766.486V231H764.533V219.125ZM773.039 224.438H779.68V225.941H773.039V224.438ZM782.863 217.406H791.643V219.105H784.816V223.109H789.982V224.75H784.816V229.281H791.643V231H782.863V217.406ZM794.533 217.406H795.939L803.039 227.436L802.932 226.029V217.406H804.865V231H803.469L797.541 222.67L796.359 220.971L796.467 222.67V231H794.533V217.406ZM807.883 217.416H811.184C813.41 217.416 815.174 217.966 816.477 219.066C817.883 220.245 818.586 221.964 818.586 224.223C818.586 226.482 817.902 228.197 816.535 229.369C815.259 230.456 813.508 231 811.281 231H807.883V217.416ZM816.584 224.232C816.584 220.736 814.742 218.988 811.057 218.988H809.836V229.438H811.164C813.977 229.438 815.689 228.422 816.301 226.391C816.49 225.746 816.584 225.027 816.584 224.232Z" fill="white"/>
<path d="M0 200H820" stroke="#F5F5F5" stroke-width="4"/>
<path d="M52.394 77.786C52.394 75.4633 53.198 73.498 54.806 71.89C56.414 70.282 58.3793 69.478 60.702 69.478C63.0247 69.478 64.99 70.282 66.598 71.89C68.206 73.498 69.01 75.4633 69.01 77.786C69.01 80.1087 68.206 82.074 66.598 83.682C64.99 85.29 63.0247 86.094 60.702 86.094C58.3793 86.094 56.414 85.29 54.806 83.682C53.198 82.074 52.394 80.1087 52.394 77.786ZM60.702 49.11C64.186 49.11 67.268 48.976 69.948 48.708C72.628 48.3507 75.4867 47.4573 78.524 46.028C81.5613 44.5987 85.0007 42.4547 88.842 39.596C92.7727 36.7373 97.6413 32.762 103.448 27.67C104.967 26.4193 106.485 25.794 108.004 25.794C109.791 25.794 111.309 26.4193 112.56 27.67C113.811 28.9207 114.436 30.4393 114.436 32.226C114.436 33.2087 114.168 34.1467 113.632 35.04C113.185 35.9333 112.605 36.6927 111.89 37.318C106.262 42.3207 101.215 46.4747 96.748 49.78C92.3707 52.996 88.2167 55.5867 84.286 57.552C80.3553 59.428 76.514 60.768 72.762 61.572C69.01 62.376 64.99 62.778 60.702 62.778C56.146 62.778 51.9473 62.4207 48.106 61.706C44.354 60.902 40.5573 59.5173 36.716 57.552C32.8747 55.5867 28.7653 52.996 24.388 49.78C20.0107 46.4747 14.9633 42.3207 9.246 37.318C8.53133 36.6927 7.906 35.9333 7.37 35.04C6.92333 34.1467 6.7 33.2087 6.7 32.226C6.7 30.4393 7.32533 28.9207 8.576 27.67C9.82667 26.4193 11.3453 25.794 13.132 25.794C14.0253 25.794 14.8293 25.9727 15.544 26.33C16.2587 26.6873 16.9733 27.134 17.688 27.67C23.4053 32.6727 28.1847 36.6033 32.026 39.462C35.9567 42.3207 39.4407 44.4647 42.478 45.894C45.6047 47.3233 48.5527 48.2167 51.322 48.574C54.0913 48.9313 57.218 49.11 60.702 49.11ZM206.079 71.354C209.117 71.354 211.618 70.818 213.583 69.746C215.549 68.5847 217.067 67.2 218.139 65.592C219.301 63.984 220.06 62.242 220.417 60.366C220.864 58.4007 221.087 56.614 221.087 55.006C221.087 53.398 220.864 51.656 220.417 49.78C220.06 47.8147 219.301 46.028 218.139 44.42C217.067 42.812 215.549 41.472 213.583 40.4C211.618 39.2387 209.117 38.658 206.079 38.658H151.943C148.817 38.658 146.271 39.2387 144.305 40.4C142.429 41.472 140.911 42.812 139.749 44.42C138.677 46.028 137.918 47.8147 137.471 49.78C137.114 51.656 136.935 53.398 136.935 55.006C136.935 56.614 137.114 58.4007 137.471 60.366C137.918 62.242 138.677 63.984 139.749 65.592C140.911 67.2 142.429 68.5847 144.305 69.746C146.271 70.818 148.817 71.354 151.943 71.354H206.079ZM233.549 55.006C233.549 58.4007 232.969 61.84 231.807 65.324C230.735 68.7187 229.127 71.8453 226.983 74.704C224.839 77.4733 222.249 79.7513 219.211 81.538C216.174 83.3247 212.735 84.218 208.893 84.218H147.789C144.127 84.0393 140.866 83.0567 138.007 81.27C135.149 79.394 132.692 77.0713 130.637 74.302C128.672 71.5327 127.153 68.4507 126.081 65.056C125.009 61.6613 124.473 58.3113 124.473 55.006C124.473 51.6113 125.009 48.2167 126.081 44.822C127.243 41.338 128.895 38.2113 131.039 35.442C133.183 32.5833 135.774 30.2607 138.811 28.474C141.849 26.6873 145.288 25.794 149.129 25.794H210.233C213.896 25.9727 217.157 27 220.015 28.876C222.874 30.6627 225.286 32.9407 227.251 35.71C229.306 38.4793 230.869 41.5613 231.941 44.956C233.013 48.3507 233.549 51.7007 233.549 55.006ZM351.88 77.786C351.88 79.5727 351.254 81.0913 350.004 82.342C348.753 83.5927 347.234 84.218 345.448 84.218C343.661 84.218 342.142 83.5927 340.892 82.342C339.641 81.0913 339.016 79.5727 339.016 77.786V61.438H259.822V77.786C259.822 79.5727 259.196 81.0913 257.946 82.342C256.695 83.5927 255.176 84.218 253.39 84.218C251.603 84.218 250.084 83.5927 248.834 82.342C247.583 81.0913 246.958 79.5727 246.958 77.786V32.226C246.958 30.4393 247.583 28.9207 248.834 27.67C250.084 26.4193 251.603 25.794 253.39 25.794C255.176 25.794 256.695 26.4193 257.946 27.67C259.196 28.9207 259.822 30.4393 259.822 32.226V48.574H339.016V32.226C339.016 30.4393 339.641 28.9207 340.892 27.67C342.142 26.4193 343.661 25.794 345.448 25.794C347.234 25.794 348.753 26.4193 350.004 27.67C351.254 28.9207 351.88 30.4393 351.88 32.226V77.786ZM404.919 69.746C404.919 67.4233 405.723 65.458 407.331 63.85C408.939 62.242 410.904 61.438 413.227 61.438C415.549 61.438 417.515 62.242 419.123 63.85C420.731 65.458 421.535 67.4233 421.535 69.746C421.535 72.0687 420.731 74.034 419.123 75.642C417.515 77.25 415.549 78.054 413.227 78.054C410.904 78.054 408.939 77.25 407.331 75.642C405.723 74.034 404.919 72.0687 404.919 69.746ZM376.645 81.806C375.305 83.414 373.652 84.218 371.687 84.218C369.9 84.218 368.381 83.5927 367.131 82.342C365.88 81.0913 365.255 79.5727 365.255 77.786C365.255 76.178 365.701 74.8827 366.595 73.9L399.157 30.082C400.675 28.0273 402.685 26.3747 405.187 25.124C407.688 23.784 410.368 23.114 413.227 23.114C415.907 23.114 418.453 23.6947 420.865 24.856C423.277 26.0173 425.242 27.6253 426.761 29.68L459.323 73.23C459.859 73.8553 460.305 74.57 460.663 75.374C461.02 76.0887 461.199 76.8927 461.199 77.786C461.199 79.5727 460.573 81.0913 459.323 82.342C458.072 83.5927 456.553 84.218 454.767 84.218C452.623 84.218 450.925 83.3693 449.675 81.672L418.453 39.998C417.827 39.2833 417.023 38.524 416.041 37.72C415.147 36.8267 414.209 36.38 413.227 36.38C412.244 36.38 411.261 36.8267 410.279 37.72C409.385 38.524 408.671 39.2833 408.135 39.998L376.645 81.806ZM565.907 55.006C565.907 53.398 565.684 51.656 565.237 49.78C564.88 47.8147 564.12 46.028 562.959 44.42C561.887 42.812 560.368 41.472 558.403 40.4C556.438 39.2387 553.936 38.658 550.899 38.658H502.525C499.398 38.658 496.852 39.2387 494.887 40.4C493.011 41.472 491.492 42.812 490.331 44.42C489.259 46.028 488.5 47.8147 488.053 49.78C487.696 51.656 487.517 53.398 487.517 55.006V77.786C487.517 79.5727 486.892 81.0913 485.641 82.342C484.39 83.5927 482.872 84.218 481.085 84.218C479.298 84.218 477.78 83.5927 476.529 82.342C475.278 81.0913 474.653 79.5727 474.653 77.786V55.006C474.653 51.6113 475.189 48.2167 476.261 44.822C477.422 41.338 479.075 38.2113 481.219 35.442C483.363 32.5833 485.954 30.2607 488.991 28.474C492.028 26.6873 495.468 25.794 499.309 25.794L555.455 25.794C559.118 25.9727 562.378 27 565.237 28.876C568.096 30.6627 570.508 32.9407 572.473 35.71C574.528 38.4793 576.091 41.5613 577.163 44.956C578.235 48.3507 578.771 51.7007 578.771 55.006V77.786C578.771 79.5727 578.146 81.0913 576.895 82.342C575.644 83.5927 574.126 84.218 572.339 84.218C570.552 84.218 569.034 83.5927 567.783 82.342C566.532 81.0913 565.907 79.5727 565.907 77.786V55.006ZM19.564 171.354H93.934C95.274 171.354 96.4353 170.863 97.418 169.88C98.49 168.897 99.026 167.736 99.026 166.396C99.026 164.967 98.49 163.805 97.418 162.912C96.4353 161.929 95.274 161.438 93.934 161.438H19.564V171.354ZM19.564 138.658V148.574H94.068C95.408 148.574 96.5693 148.127 97.552 147.234C98.5347 146.341 99.026 145.179 99.026 143.75C99.026 142.41 98.49 141.249 97.418 140.266C96.4353 139.194 95.274 138.658 93.934 138.658H19.564ZM13.132 184.218C11.3453 184.218 9.82667 183.593 8.576 182.342C7.32533 181.091 6.7 179.573 6.7 177.786V132.226C6.7 130.439 7.32533 128.921 8.576 127.67C9.82667 126.419 11.3453 125.794 13.132 125.794H93.398C95.8993 125.794 98.222 126.285 100.366 127.268C102.599 128.161 104.52 129.412 106.128 131.02C107.825 132.628 109.121 134.549 110.014 136.782C110.997 138.926 111.488 141.249 111.488 143.75C111.488 145.983 111.086 148.083 110.282 150.048C109.567 151.924 108.585 153.621 107.334 155.14C108.585 156.659 109.567 158.401 110.282 160.366C111.086 162.242 111.488 164.252 111.488 166.396C111.488 168.897 110.997 171.22 110.014 173.364C109.121 175.508 107.825 177.384 106.128 178.992C104.52 180.6 102.599 181.895 100.366 182.878C98.222 183.771 95.8993 184.218 93.398 184.218H13.132ZM164.53 169.746C164.53 167.423 165.334 165.458 166.942 163.85C168.55 162.242 170.515 161.438 172.838 161.438C175.161 161.438 177.126 162.242 178.734 163.85C180.342 165.458 181.146 167.423 181.146 169.746C181.146 172.069 180.342 174.034 178.734 175.642C177.126 177.25 175.161 178.054 172.838 178.054C170.515 178.054 168.55 177.25 166.942 175.642C165.334 174.034 164.53 172.069 164.53 169.746ZM136.256 181.806C134.916 183.414 133.263 184.218 131.298 184.218C129.511 184.218 127.993 183.593 126.742 182.342C125.491 181.091 124.866 179.573 124.866 177.786C124.866 176.178 125.313 174.883 126.206 173.9L158.768 130.082C160.287 128.027 162.297 126.375 164.798 125.124C167.299 123.784 169.979 123.114 172.838 123.114C175.518 123.114 178.064 123.695 180.476 124.856C182.888 126.017 184.853 127.625 186.372 129.68L218.934 173.23C219.47 173.855 219.917 174.57 220.274 175.374C220.631 176.089 220.81 176.893 220.81 177.786C220.81 179.573 220.185 181.091 218.934 182.342C217.683 183.593 216.165 184.218 214.378 184.218C212.234 184.218 210.537 183.369 209.286 181.672L178.064 139.998C177.439 139.283 176.635 138.524 175.652 137.72C174.759 136.827 173.821 136.38 172.838 136.38C171.855 136.38 170.873 136.827 169.89 137.72C168.997 138.524 168.282 139.283 167.746 139.998L136.256 181.806ZM320.426 161.438C322.838 162.957 325.295 164.609 327.796 166.396C330.298 168.093 332.844 169.969 335.434 172.024C336.417 172.739 337.266 173.587 337.98 174.57C338.695 175.463 339.052 176.535 339.052 177.786C339.052 179.573 338.427 181.091 337.176 182.342C335.926 183.593 334.407 184.218 332.62 184.218C331.102 184.218 329.583 183.593 328.064 182.342C324.402 179.662 320.65 177.071 316.808 174.57C312.967 172.069 308.947 169.835 304.748 167.87C300.639 165.905 296.351 164.341 291.884 163.18C287.418 162.019 282.772 161.438 277.948 161.438H251.282C250.121 161.617 249.138 162.153 248.334 163.046C247.53 163.939 247.128 165.056 247.128 166.396V177.786C247.128 179.573 246.458 181.091 245.118 182.342C243.868 183.593 242.394 184.218 240.696 184.218C238.91 184.218 237.391 183.593 236.14 182.342C234.89 181.091 234.264 179.573 234.264 177.786V164.922C234.264 162.689 234.666 160.589 235.47 158.624C236.364 156.569 237.525 154.827 238.954 153.398C240.384 151.879 242.081 150.718 244.046 149.914C246.012 149.021 248.156 148.574 250.478 148.574H321.498C322.838 148.574 324 148.127 324.982 147.234C326.054 146.251 326.59 145.045 326.59 143.616C326.59 142.276 326.054 141.115 324.982 140.132C324 139.149 322.838 138.658 321.498 138.658H240.696C238.91 138.658 237.391 138.033 236.14 136.782C234.89 135.531 234.264 134.013 234.264 132.226C234.264 130.439 234.89 128.921 236.14 127.67C237.391 126.419 238.91 125.794 240.696 125.794H320.962C323.464 125.794 325.786 126.285 327.93 127.268C330.164 128.161 332.084 129.412 333.692 131.02C335.39 132.628 336.685 134.504 337.578 136.648C338.561 138.792 339.052 141.115 339.052 143.616C339.052 146.117 338.561 148.44 337.578 150.584C336.685 152.728 335.39 154.604 333.692 156.212C332.084 157.82 330.164 159.115 327.93 160.098C325.786 160.991 323.464 161.438 320.962 161.438H320.426ZM365.294 171.354H439.664C441.004 171.354 442.166 170.863 443.148 169.88C444.22 168.897 444.756 167.736 444.756 166.396C444.756 164.967 444.22 163.805 443.148 162.912C442.166 161.929 441.004 161.438 439.664 161.438H365.294V171.354ZM365.294 138.658V148.574H439.798C441.138 148.574 442.3 148.127 443.282 147.234C444.265 146.341 444.756 145.179 444.756 143.75C444.756 142.41 444.22 141.249 443.148 140.266C442.166 139.194 441.004 138.658 439.664 138.658H365.294ZM358.862 184.218C357.076 184.218 355.557 183.593 354.306 182.342C353.056 181.091 352.43 179.573 352.43 177.786V132.226C352.43 130.439 353.056 128.921 354.306 127.67C355.557 126.419 357.076 125.794 358.862 125.794H439.128C441.63 125.794 443.952 126.285 446.096 127.268C448.33 128.161 450.25 129.412 451.858 131.02C453.556 132.628 454.851 134.549 455.744 136.782C456.727 138.926 457.218 141.249 457.218 143.75C457.218 145.983 456.816 148.083 456.012 150.048C455.298 151.924 454.315 153.621 453.064 155.14C454.315 156.659 455.298 158.401 456.012 160.366C456.816 162.242 457.218 164.252 457.218 166.396C457.218 168.897 456.727 171.22 455.744 173.364C454.851 175.508 453.556 177.384 451.858 178.992C450.25 180.6 448.33 181.895 446.096 182.878C443.952 183.771 441.63 184.218 439.128 184.218H358.862ZM552.202 171.354C555.24 171.354 557.741 170.818 559.706 169.746C561.672 168.585 563.19 167.2 564.262 165.592C565.424 163.984 566.183 162.242 566.54 160.366C566.987 158.401 567.21 156.614 567.21 155.006C567.21 153.398 566.987 151.656 566.54 149.78C566.183 147.815 565.424 146.028 564.262 144.42C563.19 142.812 561.672 141.472 559.706 140.4C557.741 139.239 555.24 138.658 552.202 138.658H498.066C494.94 138.658 492.394 139.239 490.428 140.4C488.552 141.472 487.034 142.812 485.872 144.42C484.8 146.028 484.041 147.815 483.594 149.78C483.237 151.656 483.058 153.398 483.058 155.006C483.058 156.614 483.237 158.401 483.594 160.366C484.041 162.242 484.8 163.984 485.872 165.592C487.034 167.2 488.552 168.585 490.428 169.746C492.394 170.818 494.94 171.354 498.066 171.354H552.202ZM579.672 155.006C579.672 158.401 579.092 161.84 577.93 165.324C576.858 168.719 575.25 171.845 573.106 174.704C570.962 177.473 568.372 179.751 565.334 181.538C562.297 183.325 558.858 184.218 555.016 184.218H493.912C490.25 184.039 486.989 183.057 484.13 181.27C481.272 179.394 478.815 177.071 476.76 174.302C474.795 171.533 473.276 168.451 472.204 165.056C471.132 161.661 470.596 158.311 470.596 155.006C470.596 151.611 471.132 148.217 472.204 144.822C473.366 141.338 475.018 138.211 477.162 135.442C479.306 132.583 481.897 130.261 484.934 128.474C487.972 126.687 491.411 125.794 495.252 125.794H556.356C560.019 125.973 563.28 127 566.138 128.876C568.997 130.663 571.409 132.941 573.374 135.71C575.429 138.479 576.992 141.561 578.064 144.956C579.136 148.351 579.672 151.701 579.672 155.006ZM599.513 138.658C597.726 138.658 596.208 138.033 594.957 136.782C593.706 135.531 593.081 134.013 593.081 132.226C593.081 130.439 593.706 128.921 594.957 127.67C596.208 126.419 597.726 125.794 599.513 125.794H688.087C691.66 125.794 694.698 127.045 697.199 129.546C699.7 132.047 700.951 135.085 700.951 138.658C700.951 141.695 700.058 144.375 698.271 146.698C696.484 148.931 694.206 150.405 691.437 151.12L616.263 168.942C614.119 169.478 613.047 169.969 613.047 170.416C613.047 171.041 614.968 171.354 618.809 171.354H694.519C696.306 171.354 697.824 171.979 699.075 173.23C700.326 174.481 700.951 175.999 700.951 177.786C700.951 179.573 700.326 181.091 699.075 182.342C697.824 183.593 696.306 184.218 694.519 184.218H605.945C602.372 184.218 599.334 182.967 596.833 180.466C594.332 177.965 593.081 174.927 593.081 171.354C593.081 168.585 593.84 166.039 595.359 163.716C596.878 161.393 598.932 159.919 601.523 159.294L677.903 141.338C679.332 140.891 680.047 140.445 680.047 139.998C680.047 139.105 678.439 138.658 675.223 138.658H599.513ZM754.052 169.746C754.052 167.423 754.856 165.458 756.464 163.85C758.072 162.242 760.037 161.438 762.36 161.438C764.682 161.438 766.648 162.242 768.256 163.85C769.864 165.458 770.668 167.423 770.668 169.746C770.668 172.069 769.864 174.034 768.256 175.642C766.648 177.25 764.682 178.054 762.36 178.054C760.037 178.054 758.072 177.25 756.464 175.642C754.856 174.034 754.052 172.069 754.052 169.746ZM725.778 181.806C724.438 183.414 722.785 184.218 720.82 184.218C719.033 184.218 717.514 183.593 716.264 182.342C715.013 181.091 714.388 179.573 714.388 177.786C714.388 176.178 714.834 174.883 715.728 173.9L748.29 130.082C749.808 128.027 751.818 126.375 754.32 125.124C756.821 123.784 759.501 123.114 762.36 123.114C765.04 123.114 767.586 123.695 769.998 124.856C772.41 126.017 774.375 127.625 775.894 129.68L808.456 173.23C808.992 173.855 809.438 174.57 809.796 175.374C810.153 176.089 810.332 176.893 810.332 177.786C810.332 179.573 809.706 181.091 808.456 182.342C807.205 183.593 805.686 184.218 803.9 184.218C801.756 184.218 800.058 183.369 798.808 181.672L767.586 139.998C766.96 139.283 766.156 138.524 765.174 137.72C764.28 136.827 763.342 136.38 762.36 136.38C761.377 136.38 760.394 136.827 759.412 137.72C758.518 138.524 757.804 139.283 757.268 139.998L725.778 181.806Z" fill="white"/>
</svg>
