<svg width="879" height="263" viewBox="0 0 879 263" fill="none" xmlns="http://www.w3.org/2000/svg">
<rect y="109" width="154" height="154" fill="#FF0000" fill-opacity="0.48"/>
<path d="M768.504 217.406H777.752V219.105H770.457V223.109H776.092V224.75H770.457V231H768.504V217.406ZM780.34 217.406H784.197C786.769 217.406 788.426 218.168 789.168 219.691C789.435 220.251 789.568 220.883 789.568 221.586C789.568 222.283 789.474 222.872 789.285 223.354C789.103 223.835 788.846 224.249 788.514 224.594C787.876 225.258 786.997 225.694 785.877 225.902C786.339 227.328 787.124 228.311 788.23 228.852C788.595 229.034 788.901 229.132 789.148 229.145C789.565 229.158 789.858 229.145 790.027 229.105V231H789.588C788.123 231 786.876 230.479 785.848 229.438C784.943 228.533 784.334 227.393 784.021 226.02H782.293V231H780.34V217.406ZM784.07 224.457C785.249 224.457 786.121 224.229 786.688 223.773C787.254 223.318 787.537 222.608 787.537 221.645C787.537 220.362 786.941 219.535 785.75 219.164C785.333 219.034 784.829 218.969 784.236 218.969H782.293V224.457H784.07ZM791.424 224.223C791.424 223.161 791.583 222.201 791.902 221.342C792.221 220.482 792.664 219.75 793.23 219.145C794.422 217.882 795.968 217.25 797.869 217.25C799.777 217.25 801.32 217.882 802.498 219.145C803.696 220.427 804.295 222.12 804.295 224.223C804.295 226.326 803.696 228.012 802.498 229.281C801.326 230.531 799.783 231.156 797.869 231.156C795.962 231.156 794.415 230.531 793.23 229.281C792.026 228.005 791.424 226.319 791.424 224.223ZM793.377 224.213C793.377 225.697 793.738 226.924 794.461 227.895C795.275 228.975 796.411 229.516 797.869 229.516C799.327 229.516 800.46 228.975 801.268 227.895C801.984 226.938 802.342 225.717 802.342 224.232C802.342 222.735 801.984 221.501 801.268 220.531C800.46 219.438 799.327 218.891 797.869 218.891C796.404 218.891 795.268 219.438 794.461 220.531C793.738 221.501 793.377 222.729 793.377 224.213ZM806.854 217.406H808.26L815.359 227.436L815.252 226.029V217.406H817.186V231H815.789L809.861 222.67L808.68 220.971L808.787 222.67V231H806.854V217.406ZM823.533 219.125H819.441V217.406H829.578V219.125H825.486V231H823.533V219.125ZM832.039 224.438H838.68V225.941H832.039V224.438ZM841.863 217.406H850.643V219.105H843.816V223.109H848.982V224.75H843.816V229.281H850.643V231H841.863V217.406ZM853.533 217.406H854.939L862.039 227.436L861.932 226.029V217.406H863.865V231H862.469L856.541 222.67L855.359 220.971L855.467 222.67V231H853.533V217.406ZM866.883 217.416H870.184C872.41 217.416 874.174 217.966 875.477 219.066C876.883 220.245 877.586 221.964 877.586 224.223C877.586 226.482 876.902 228.197 875.535 229.369C874.259 230.456 872.508 231 870.281 231H866.883V217.416ZM875.584 224.232C875.584 220.736 873.742 218.988 870.057 218.988H868.836V229.438H870.164C872.977 229.438 874.689 228.422 875.301 226.391C875.49 225.746 875.584 225.027 875.584 224.232Z" fill="white"/>
<path d="M59 200H879" stroke="#F5F5F5" stroke-width="4"/>
<path d="M111.394 77.786C111.394 75.4633 112.198 73.498 113.806 71.89C115.414 70.282 117.379 69.478 119.702 69.478C122.025 69.478 123.99 70.282 125.598 71.89C127.206 73.498 128.01 75.4633 128.01 77.786C128.01 80.1087 127.206 82.074 125.598 83.682C123.99 85.29 122.025 86.094 119.702 86.094C117.379 86.094 115.414 85.29 113.806 83.682C112.198 82.074 111.394 80.1087 111.394 77.786ZM119.702 49.11C123.186 49.11 126.268 48.976 128.948 48.708C131.628 48.3507 134.487 47.4573 137.524 46.028C140.561 44.5987 144.001 42.4547 147.842 39.596C151.773 36.7373 156.641 32.762 162.448 27.67C163.967 26.4193 165.485 25.794 167.004 25.794C168.791 25.794 170.309 26.4193 171.56 27.67C172.811 28.9207 173.436 30.4393 173.436 32.226C173.436 33.2087 173.168 34.1467 172.632 35.04C172.185 35.9333 171.605 36.6927 170.89 37.318C165.262 42.3207 160.215 46.4747 155.748 49.78C151.371 52.996 147.217 55.5867 143.286 57.552C139.355 59.428 135.514 60.768 131.762 61.572C128.01 62.376 123.99 62.778 119.702 62.778C115.146 62.778 110.947 62.4207 107.106 61.706C103.354 60.902 99.5573 59.5173 95.716 57.552C91.8747 55.5867 87.7653 52.996 83.388 49.78C79.0107 46.4747 73.9633 42.3207 68.246 37.318C67.5313 36.6927 66.906 35.9333 66.37 35.04C65.9233 34.1467 65.7 33.2087 65.7 32.226C65.7 30.4393 66.3253 28.9207 67.576 27.67C68.8267 26.4193 70.3453 25.794 72.132 25.794C73.0253 25.794 73.8293 25.9727 74.544 26.33C75.2587 26.6873 75.9733 27.134 76.688 27.67C82.4053 32.6727 87.1847 36.6033 91.026 39.462C94.9567 42.3207 98.4407 44.4647 101.478 45.894C104.605 47.3233 107.553 48.2167 110.322 48.574C113.091 48.9313 116.218 49.11 119.702 49.11ZM265.079 71.354C268.117 71.354 270.618 70.818 272.583 69.746C274.549 68.5847 276.067 67.2 277.139 65.592C278.301 63.984 279.06 62.242 279.417 60.366C279.864 58.4007 280.087 56.614 280.087 55.006C280.087 53.398 279.864 51.656 279.417 49.78C279.06 47.8147 278.301 46.028 277.139 44.42C276.067 42.812 274.549 41.472 272.583 40.4C270.618 39.2387 268.117 38.658 265.079 38.658H210.943C207.817 38.658 205.271 39.2387 203.305 40.4C201.429 41.472 199.911 42.812 198.749 44.42C197.677 46.028 196.918 47.8147 196.471 49.78C196.114 51.656 195.935 53.398 195.935 55.006C195.935 56.614 196.114 58.4007 196.471 60.366C196.918 62.242 197.677 63.984 198.749 65.592C199.911 67.2 201.429 68.5847 203.305 69.746C205.271 70.818 207.817 71.354 210.943 71.354H265.079ZM292.549 55.006C292.549 58.4007 291.969 61.84 290.807 65.324C289.735 68.7187 288.127 71.8453 285.983 74.704C283.839 77.4733 281.249 79.7513 278.211 81.538C275.174 83.3247 271.735 84.218 267.893 84.218H206.789C203.127 84.0393 199.866 83.0567 197.007 81.27C194.149 79.394 191.692 77.0713 189.637 74.302C187.672 71.5327 186.153 68.4507 185.081 65.056C184.009 61.6613 183.473 58.3113 183.473 55.006C183.473 51.6113 184.009 48.2167 185.081 44.822C186.243 41.338 187.895 38.2113 190.039 35.442C192.183 32.5833 194.774 30.2607 197.811 28.474C200.849 26.6873 204.288 25.794 208.129 25.794H269.233C272.896 25.9727 276.157 27 279.015 28.876C281.874 30.6627 284.286 32.9407 286.251 35.71C288.306 38.4793 289.869 41.5613 290.941 44.956C292.013 48.3507 292.549 51.7007 292.549 55.006ZM410.88 77.786C410.88 79.5727 410.254 81.0913 409.004 82.342C407.753 83.5927 406.234 84.218 404.448 84.218C402.661 84.218 401.142 83.5927 399.892 82.342C398.641 81.0913 398.016 79.5727 398.016 77.786V61.438H318.822V77.786C318.822 79.5727 318.196 81.0913 316.946 82.342C315.695 83.5927 314.176 84.218 312.39 84.218C310.603 84.218 309.084 83.5927 307.834 82.342C306.583 81.0913 305.958 79.5727 305.958 77.786V32.226C305.958 30.4393 306.583 28.9207 307.834 27.67C309.084 26.4193 310.603 25.794 312.39 25.794C314.176 25.794 315.695 26.4193 316.946 27.67C318.196 28.9207 318.822 30.4393 318.822 32.226V48.574H398.016V32.226C398.016 30.4393 398.641 28.9207 399.892 27.67C401.142 26.4193 402.661 25.794 404.448 25.794C406.234 25.794 407.753 26.4193 409.004 27.67C410.254 28.9207 410.88 30.4393 410.88 32.226V77.786ZM463.919 69.746C463.919 67.4233 464.723 65.458 466.331 63.85C467.939 62.242 469.904 61.438 472.227 61.438C474.549 61.438 476.515 62.242 478.123 63.85C479.731 65.458 480.535 67.4233 480.535 69.746C480.535 72.0687 479.731 74.034 478.123 75.642C476.515 77.25 474.549 78.054 472.227 78.054C469.904 78.054 467.939 77.25 466.331 75.642C464.723 74.034 463.919 72.0687 463.919 69.746ZM435.645 81.806C434.305 83.414 432.652 84.218 430.687 84.218C428.9 84.218 427.381 83.5927 426.131 82.342C424.88 81.0913 424.255 79.5727 424.255 77.786C424.255 76.178 424.701 74.8827 425.595 73.9L458.157 30.082C459.675 28.0273 461.685 26.3747 464.187 25.124C466.688 23.784 469.368 23.114 472.227 23.114C474.907 23.114 477.453 23.6947 479.865 24.856C482.277 26.0173 484.242 27.6253 485.761 29.68L518.323 73.23C518.859 73.8553 519.305 74.57 519.663 75.374C520.02 76.0887 520.199 76.8927 520.199 77.786C520.199 79.5727 519.573 81.0913 518.323 82.342C517.072 83.5927 515.553 84.218 513.767 84.218C511.623 84.218 509.925 83.3693 508.675 81.672L477.453 39.998C476.827 39.2833 476.023 38.524 475.041 37.72C474.147 36.8267 473.209 36.38 472.227 36.38C471.244 36.38 470.261 36.8267 469.279 37.72C468.385 38.524 467.671 39.2833 467.135 39.998L435.645 81.806ZM624.907 55.006C624.907 53.398 624.684 51.656 624.237 49.78C623.88 47.8147 623.12 46.028 621.959 44.42C620.887 42.812 619.368 41.472 617.403 40.4C615.438 39.2387 612.936 38.658 609.899 38.658H561.525C558.398 38.658 555.852 39.2387 553.887 40.4C552.011 41.472 550.492 42.812 549.331 44.42C548.259 46.028 547.5 47.8147 547.053 49.78C546.696 51.656 546.517 53.398 546.517 55.006V77.786C546.517 79.5727 545.892 81.0913 544.641 82.342C543.39 83.5927 541.872 84.218 540.085 84.218C538.298 84.218 536.78 83.5927 535.529 82.342C534.278 81.0913 533.653 79.5727 533.653 77.786V55.006C533.653 51.6113 534.189 48.2167 535.261 44.822C536.422 41.338 538.075 38.2113 540.219 35.442C542.363 32.5833 544.954 30.2607 547.991 28.474C551.028 26.6873 554.468 25.794 558.309 25.794L614.455 25.794C618.118 25.9727 621.378 27 624.237 28.876C627.096 30.6627 629.508 32.9407 631.473 35.71C633.528 38.4793 635.091 41.5613 636.163 44.956C637.235 48.3507 637.771 51.7007 637.771 55.006V77.786C637.771 79.5727 637.146 81.0913 635.895 82.342C634.644 83.5927 633.126 84.218 631.339 84.218C629.552 84.218 628.034 83.5927 626.783 82.342C625.532 81.0913 624.907 79.5727 624.907 77.786V55.006ZM78.564 171.354H152.934C154.274 171.354 155.435 170.863 156.418 169.88C157.49 168.897 158.026 167.736 158.026 166.396C158.026 164.967 157.49 163.805 156.418 162.912C155.435 161.929 154.274 161.438 152.934 161.438H78.564V171.354ZM78.564 138.658V148.574H153.068C154.408 148.574 155.569 148.127 156.552 147.234C157.535 146.341 158.026 145.179 158.026 143.75C158.026 142.41 157.49 141.249 156.418 140.266C155.435 139.194 154.274 138.658 152.934 138.658H78.564ZM72.132 184.218C70.3453 184.218 68.8267 183.593 67.576 182.342C66.3253 181.091 65.7 179.573 65.7 177.786V132.226C65.7 130.439 66.3253 128.921 67.576 127.67C68.8267 126.419 70.3453 125.794 72.132 125.794H152.398C154.899 125.794 157.222 126.285 159.366 127.268C161.599 128.161 163.52 129.412 165.128 131.02C166.825 132.628 168.121 134.549 169.014 136.782C169.997 138.926 170.488 141.249 170.488 143.75C170.488 145.983 170.086 148.083 169.282 150.048C168.567 151.924 167.585 153.621 166.334 155.14C167.585 156.659 168.567 158.401 169.282 160.366C170.086 162.242 170.488 164.252 170.488 166.396C170.488 168.897 169.997 171.22 169.014 173.364C168.121 175.508 166.825 177.384 165.128 178.992C163.52 180.6 161.599 181.895 159.366 182.878C157.222 183.771 154.899 184.218 152.398 184.218H72.132ZM223.53 169.746C223.53 167.423 224.334 165.458 225.942 163.85C227.55 162.242 229.515 161.438 231.838 161.438C234.161 161.438 236.126 162.242 237.734 163.85C239.342 165.458 240.146 167.423 240.146 169.746C240.146 172.069 239.342 174.034 237.734 175.642C236.126 177.25 234.161 178.054 231.838 178.054C229.515 178.054 227.55 177.25 225.942 175.642C224.334 174.034 223.53 172.069 223.53 169.746ZM195.256 181.806C193.916 183.414 192.263 184.218 190.298 184.218C188.511 184.218 186.993 183.593 185.742 182.342C184.491 181.091 183.866 179.573 183.866 177.786C183.866 176.178 184.313 174.883 185.206 173.9L217.768 130.082C219.287 128.027 221.297 126.375 223.798 125.124C226.299 123.784 228.979 123.114 231.838 123.114C234.518 123.114 237.064 123.695 239.476 124.856C241.888 126.017 243.853 127.625 245.372 129.68L277.934 173.23C278.47 173.855 278.917 174.57 279.274 175.374C279.631 176.089 279.81 176.893 279.81 177.786C279.81 179.573 279.185 181.091 277.934 182.342C276.683 183.593 275.165 184.218 273.378 184.218C271.234 184.218 269.537 183.369 268.286 181.672L237.064 139.998C236.439 139.283 235.635 138.524 234.652 137.72C233.759 136.827 232.821 136.38 231.838 136.38C230.855 136.38 229.873 136.827 228.89 137.72C227.997 138.524 227.282 139.283 226.746 139.998L195.256 181.806ZM379.426 161.438C381.838 162.957 384.295 164.609 386.796 166.396C389.298 168.093 391.844 169.969 394.434 172.024C395.417 172.739 396.266 173.587 396.98 174.57C397.695 175.463 398.052 176.535 398.052 177.786C398.052 179.573 397.427 181.091 396.176 182.342C394.926 183.593 393.407 184.218 391.62 184.218C390.102 184.218 388.583 183.593 387.064 182.342C383.402 179.662 379.65 177.071 375.808 174.57C371.967 172.069 367.947 169.835 363.748 167.87C359.639 165.905 355.351 164.341 350.884 163.18C346.418 162.019 341.772 161.438 336.948 161.438H310.282C309.121 161.617 308.138 162.153 307.334 163.046C306.53 163.939 306.128 165.056 306.128 166.396V177.786C306.128 179.573 305.458 181.091 304.118 182.342C302.868 183.593 301.394 184.218 299.696 184.218C297.91 184.218 296.391 183.593 295.14 182.342C293.89 181.091 293.264 179.573 293.264 177.786V164.922C293.264 162.689 293.666 160.589 294.47 158.624C295.364 156.569 296.525 154.827 297.954 153.398C299.384 151.879 301.081 150.718 303.046 149.914C305.012 149.021 307.156 148.574 309.478 148.574H380.498C381.838 148.574 383 148.127 383.982 147.234C385.054 146.251 385.59 145.045 385.59 143.616C385.59 142.276 385.054 141.115 383.982 140.132C383 139.149 381.838 138.658 380.498 138.658H299.696C297.91 138.658 296.391 138.033 295.14 136.782C293.89 135.531 293.264 134.013 293.264 132.226C293.264 130.439 293.89 128.921 295.14 127.67C296.391 126.419 297.91 125.794 299.696 125.794H379.962C382.464 125.794 384.786 126.285 386.93 127.268C389.164 128.161 391.084 129.412 392.692 131.02C394.39 132.628 395.685 134.504 396.578 136.648C397.561 138.792 398.052 141.115 398.052 143.616C398.052 146.117 397.561 148.44 396.578 150.584C395.685 152.728 394.39 154.604 392.692 156.212C391.084 157.82 389.164 159.115 386.93 160.098C384.786 160.991 382.464 161.438 379.962 161.438H379.426ZM424.294 171.354H498.664C500.004 171.354 501.166 170.863 502.148 169.88C503.22 168.897 503.756 167.736 503.756 166.396C503.756 164.967 503.22 163.805 502.148 162.912C501.166 161.929 500.004 161.438 498.664 161.438H424.294V171.354ZM424.294 138.658V148.574H498.798C500.138 148.574 501.3 148.127 502.282 147.234C503.265 146.341 503.756 145.179 503.756 143.75C503.756 142.41 503.22 141.249 502.148 140.266C501.166 139.194 500.004 138.658 498.664 138.658H424.294ZM417.862 184.218C416.076 184.218 414.557 183.593 413.306 182.342C412.056 181.091 411.43 179.573 411.43 177.786V132.226C411.43 130.439 412.056 128.921 413.306 127.67C414.557 126.419 416.076 125.794 417.862 125.794H498.128C500.63 125.794 502.952 126.285 505.096 127.268C507.33 128.161 509.25 129.412 510.858 131.02C512.556 132.628 513.851 134.549 514.744 136.782C515.727 138.926 516.218 141.249 516.218 143.75C516.218 145.983 515.816 148.083 515.012 150.048C514.298 151.924 513.315 153.621 512.064 155.14C513.315 156.659 514.298 158.401 515.012 160.366C515.816 162.242 516.218 164.252 516.218 166.396C516.218 168.897 515.727 171.22 514.744 173.364C513.851 175.508 512.556 177.384 510.858 178.992C509.25 180.6 507.33 181.895 505.096 182.878C502.952 183.771 500.63 184.218 498.128 184.218H417.862ZM611.202 171.354C614.24 171.354 616.741 170.818 618.706 169.746C620.672 168.585 622.19 167.2 623.262 165.592C624.424 163.984 625.183 162.242 625.54 160.366C625.987 158.401 626.21 156.614 626.21 155.006C626.21 153.398 625.987 151.656 625.54 149.78C625.183 147.815 624.424 146.028 623.262 144.42C622.19 142.812 620.672 141.472 618.706 140.4C616.741 139.239 614.24 138.658 611.202 138.658H557.066C553.94 138.658 551.394 139.239 549.428 140.4C547.552 141.472 546.034 142.812 544.872 144.42C543.8 146.028 543.041 147.815 542.594 149.78C542.237 151.656 542.058 153.398 542.058 155.006C542.058 156.614 542.237 158.401 542.594 160.366C543.041 162.242 543.8 163.984 544.872 165.592C546.034 167.2 547.552 168.585 549.428 169.746C551.394 170.818 553.94 171.354 557.066 171.354H611.202ZM638.672 155.006C638.672 158.401 638.092 161.84 636.93 165.324C635.858 168.719 634.25 171.845 632.106 174.704C629.962 177.473 627.372 179.751 624.334 181.538C621.297 183.325 617.858 184.218 614.016 184.218H552.912C549.25 184.039 545.989 183.057 543.13 181.27C540.272 179.394 537.815 177.071 535.76 174.302C533.795 171.533 532.276 168.451 531.204 165.056C530.132 161.661 529.596 158.311 529.596 155.006C529.596 151.611 530.132 148.217 531.204 144.822C532.366 141.338 534.018 138.211 536.162 135.442C538.306 132.583 540.897 130.261 543.934 128.474C546.972 126.687 550.411 125.794 554.252 125.794H615.356C619.019 125.973 622.28 127 625.138 128.876C627.997 130.663 630.409 132.941 632.374 135.71C634.429 138.479 635.992 141.561 637.064 144.956C638.136 148.351 638.672 151.701 638.672 155.006ZM658.513 138.658C656.726 138.658 655.208 138.033 653.957 136.782C652.706 135.531 652.081 134.013 652.081 132.226C652.081 130.439 652.706 128.921 653.957 127.67C655.208 126.419 656.726 125.794 658.513 125.794H747.087C750.66 125.794 753.698 127.045 756.199 129.546C758.7 132.047 759.951 135.085 759.951 138.658C759.951 141.695 759.058 144.375 757.271 146.698C755.484 148.931 753.206 150.405 750.437 151.12L675.263 168.942C673.119 169.478 672.047 169.969 672.047 170.416C672.047 171.041 673.968 171.354 677.809 171.354H753.519C755.306 171.354 756.824 171.979 758.075 173.23C759.326 174.481 759.951 175.999 759.951 177.786C759.951 179.573 759.326 181.091 758.075 182.342C756.824 183.593 755.306 184.218 753.519 184.218H664.945C661.372 184.218 658.334 182.967 655.833 180.466C653.332 177.965 652.081 174.927 652.081 171.354C652.081 168.585 652.84 166.039 654.359 163.716C655.878 161.393 657.932 159.919 660.523 159.294L736.903 141.338C738.332 140.891 739.047 140.445 739.047 139.998C739.047 139.105 737.439 138.658 734.223 138.658H658.513ZM813.052 169.746C813.052 167.423 813.856 165.458 815.464 163.85C817.072 162.242 819.037 161.438 821.36 161.438C823.682 161.438 825.648 162.242 827.256 163.85C828.864 165.458 829.668 167.423 829.668 169.746C829.668 172.069 828.864 174.034 827.256 175.642C825.648 177.25 823.682 178.054 821.36 178.054C819.037 178.054 817.072 177.25 815.464 175.642C813.856 174.034 813.052 172.069 813.052 169.746ZM784.778 181.806C783.438 183.414 781.785 184.218 779.82 184.218C778.033 184.218 776.514 183.593 775.264 182.342C774.013 181.091 773.388 179.573 773.388 177.786C773.388 176.178 773.834 174.883 774.728 173.9L807.29 130.082C808.808 128.027 810.818 126.375 813.32 125.124C815.821 123.784 818.501 123.114 821.36 123.114C824.04 123.114 826.586 123.695 828.998 124.856C831.41 126.017 833.375 127.625 834.894 129.68L867.456 173.23C867.992 173.855 868.438 174.57 868.796 175.374C869.153 176.089 869.332 176.893 869.332 177.786C869.332 179.573 868.706 181.091 867.456 182.342C866.205 183.593 864.686 184.218 862.9 184.218C860.756 184.218 859.058 183.369 857.808 181.672L826.586 139.998C825.96 139.283 825.156 138.524 824.174 137.72C823.28 136.827 822.342 136.38 821.36 136.38C820.377 136.38 819.394 136.827 818.412 137.72C817.518 138.524 816.804 139.283 816.268 139.998L784.778 181.806Z" fill="white"/>
</svg>
